<?xml version="1.0" encoding="utf-8" standalone="no"?>
<!DOCTYPE svg PUBLIC "-//W3C//DTD SVG 1.1//EN"
  "http://www.w3.org/Graphics/SVG/1.1/DTD/svg11.dtd">
<svg xmlns:xlink="http://www.w3.org/1999/xlink" width="1152pt" height="648pt" viewBox="0 0 1152 648" xmlns="http://www.w3.org/2000/svg" version="1.1">
 <metadata>
  <rdf:RDF xmlns:dc="http://purl.org/dc/elements/1.1/" xmlns:cc="http://creativecommons.org/ns#" xmlns:rdf="http://www.w3.org/1999/02/22-rdf-syntax-ns#">
   <cc:Work>
    <dc:type rdf:resource="http://purl.org/dc/dcmitype/StillImage"/>
    <dc:date>2023-12-17T16:29:49.654295</dc:date>
    <dc:format>image/svg+xml</dc:format>
    <dc:creator>
     <cc:Agent>
      <dc:title>Matplotlib v3.7.2, https://matplotlib.org/</dc:title>
     </cc:Agent>
    </dc:creator>
   </cc:Work>
  </rdf:RDF>
 </metadata>
 <defs>
  <style type="text/css">*{stroke-linejoin: round; stroke-linecap: butt}</style>
 </defs>
 <g id="figure_1">
  <g id="patch_1">
   <path d="M 0 648 
L 1152 648 
L 1152 0 
L 0 0 
z
" style="fill: #ffffff"/>
  </g>
  <g id="axes_1">
   <g id="patch_2">
    <path d="M 144 576.72 
L 1036.8 576.72 
L 1036.8 77.76 
L 144 77.76 
z
" style="fill: #eaeaf2"/>
   </g>
   <g id="matplotlib.axis_1">
    <g id="xtick_1">
     <g id="line2d_1">
      <path d="M 184.581818 576.72 
L 184.581818 77.76 
" clip-path="url(#p71ef0250bc)" style="fill: none; stroke: #ffffff; stroke-linecap: round"/>
     </g>
     <g id="line2d_2"/>
     <g id="text_1">
      <!-- 0 -->
      <g style="fill: #262626" transform="translate(181.801349 590.877813) scale(0.1 -0.1)">
       <defs>
        <path id="ArialMT-30" d="M 266 2259 
Q 266 3072 433 3567 
Q 600 4063 929 4331 
Q 1259 4600 1759 4600 
Q 2128 4600 2406 4451 
Q 2684 4303 2865 4023 
Q 3047 3744 3150 3342 
Q 3253 2941 3253 2259 
Q 3253 1453 3087 958 
Q 2922 463 2592 192 
Q 2263 -78 1759 -78 
Q 1097 -78 719 397 
Q 266 969 266 2259 
z
M 844 2259 
Q 844 1131 1108 757 
Q 1372 384 1759 384 
Q 2147 384 2411 759 
Q 2675 1134 2675 2259 
Q 2675 3391 2411 3762 
Q 2147 4134 1753 4134 
Q 1366 4134 1134 3806 
Q 844 3388 844 2259 
z
" transform="scale(0.015625)"/>
       </defs>
       <use xlink:href="#ArialMT-30"/>
      </g>
     </g>
    </g>
    <g id="xtick_2">
     <g id="line2d_3">
      <path d="M 346.909091 576.72 
L 346.909091 77.76 
" clip-path="url(#p71ef0250bc)" style="fill: none; stroke: #ffffff; stroke-linecap: round"/>
     </g>
     <g id="line2d_4"/>
     <g id="text_2">
      <!-- 20 -->
      <g style="fill: #262626" transform="translate(341.348153 590.877813) scale(0.1 -0.1)">
       <defs>
        <path id="ArialMT-32" d="M 3222 541 
L 3222 0 
L 194 0 
Q 188 203 259 391 
Q 375 700 629 1000 
Q 884 1300 1366 1694 
Q 2113 2306 2375 2664 
Q 2638 3022 2638 3341 
Q 2638 3675 2398 3904 
Q 2159 4134 1775 4134 
Q 1369 4134 1125 3890 
Q 881 3647 878 3216 
L 300 3275 
Q 359 3922 746 4261 
Q 1134 4600 1788 4600 
Q 2447 4600 2831 4234 
Q 3216 3869 3216 3328 
Q 3216 3053 3103 2787 
Q 2991 2522 2730 2228 
Q 2469 1934 1863 1422 
Q 1356 997 1212 845 
Q 1069 694 975 541 
L 3222 541 
z
" transform="scale(0.015625)"/>
       </defs>
       <use xlink:href="#ArialMT-32"/>
       <use xlink:href="#ArialMT-30" x="55.615234"/>
      </g>
     </g>
    </g>
    <g id="xtick_3">
     <g id="line2d_5">
      <path d="M 509.236364 576.72 
L 509.236364 77.76 
" clip-path="url(#p71ef0250bc)" style="fill: none; stroke: #ffffff; stroke-linecap: round"/>
     </g>
     <g id="line2d_6"/>
     <g id="text_3">
      <!-- 40 -->
      <g style="fill: #262626" transform="translate(503.675426 590.877813) scale(0.1 -0.1)">
       <defs>
        <path id="ArialMT-34" d="M 2069 0 
L 2069 1097 
L 81 1097 
L 81 1613 
L 2172 4581 
L 2631 4581 
L 2631 1613 
L 3250 1613 
L 3250 1097 
L 2631 1097 
L 2631 0 
L 2069 0 
z
M 2069 1613 
L 2069 3678 
L 634 1613 
L 2069 1613 
z
" transform="scale(0.015625)"/>
       </defs>
       <use xlink:href="#ArialMT-34"/>
       <use xlink:href="#ArialMT-30" x="55.615234"/>
      </g>
     </g>
    </g>
    <g id="xtick_4">
     <g id="line2d_7">
      <path d="M 671.563636 576.72 
L 671.563636 77.76 
" clip-path="url(#p71ef0250bc)" style="fill: none; stroke: #ffffff; stroke-linecap: round"/>
     </g>
     <g id="line2d_8"/>
     <g id="text_4">
      <!-- 60 -->
      <g style="fill: #262626" transform="translate(666.002699 590.877813) scale(0.1 -0.1)">
       <defs>
        <path id="ArialMT-36" d="M 3184 3459 
L 2625 3416 
Q 2550 3747 2413 3897 
Q 2184 4138 1850 4138 
Q 1581 4138 1378 3988 
Q 1113 3794 959 3422 
Q 806 3050 800 2363 
Q 1003 2672 1297 2822 
Q 1591 2972 1913 2972 
Q 2475 2972 2870 2558 
Q 3266 2144 3266 1488 
Q 3266 1056 3080 686 
Q 2894 316 2569 119 
Q 2244 -78 1831 -78 
Q 1128 -78 684 439 
Q 241 956 241 2144 
Q 241 3472 731 4075 
Q 1159 4600 1884 4600 
Q 2425 4600 2770 4297 
Q 3116 3994 3184 3459 
z
M 888 1484 
Q 888 1194 1011 928 
Q 1134 663 1356 523 
Q 1578 384 1822 384 
Q 2178 384 2434 671 
Q 2691 959 2691 1453 
Q 2691 1928 2437 2201 
Q 2184 2475 1800 2475 
Q 1419 2475 1153 2201 
Q 888 1928 888 1484 
z
" transform="scale(0.015625)"/>
       </defs>
       <use xlink:href="#ArialMT-36"/>
       <use xlink:href="#ArialMT-30" x="55.615234"/>
      </g>
     </g>
    </g>
    <g id="xtick_5">
     <g id="line2d_9">
      <path d="M 833.890909 576.72 
L 833.890909 77.76 
" clip-path="url(#p71ef0250bc)" style="fill: none; stroke: #ffffff; stroke-linecap: round"/>
     </g>
     <g id="line2d_10"/>
     <g id="text_5">
      <!-- 80 -->
      <g style="fill: #262626" transform="translate(828.329972 590.877813) scale(0.1 -0.1)">
       <defs>
        <path id="ArialMT-38" d="M 1131 2484 
Q 781 2613 612 2850 
Q 444 3088 444 3419 
Q 444 3919 803 4259 
Q 1163 4600 1759 4600 
Q 2359 4600 2725 4251 
Q 3091 3903 3091 3403 
Q 3091 3084 2923 2848 
Q 2756 2613 2416 2484 
Q 2838 2347 3058 2040 
Q 3278 1734 3278 1309 
Q 3278 722 2862 322 
Q 2447 -78 1769 -78 
Q 1091 -78 675 323 
Q 259 725 259 1325 
Q 259 1772 486 2073 
Q 713 2375 1131 2484 
z
M 1019 3438 
Q 1019 3113 1228 2906 
Q 1438 2700 1772 2700 
Q 2097 2700 2305 2904 
Q 2513 3109 2513 3406 
Q 2513 3716 2298 3927 
Q 2084 4138 1766 4138 
Q 1444 4138 1231 3931 
Q 1019 3725 1019 3438 
z
M 838 1322 
Q 838 1081 952 856 
Q 1066 631 1291 507 
Q 1516 384 1775 384 
Q 2178 384 2440 643 
Q 2703 903 2703 1303 
Q 2703 1709 2433 1975 
Q 2163 2241 1756 2241 
Q 1359 2241 1098 1978 
Q 838 1716 838 1322 
z
" transform="scale(0.015625)"/>
       </defs>
       <use xlink:href="#ArialMT-38"/>
       <use xlink:href="#ArialMT-30" x="55.615234"/>
      </g>
     </g>
    </g>
    <g id="xtick_6">
     <g id="line2d_11">
      <path d="M 996.218182 576.72 
L 996.218182 77.76 
" clip-path="url(#p71ef0250bc)" style="fill: none; stroke: #ffffff; stroke-linecap: round"/>
     </g>
     <g id="line2d_12"/>
     <g id="text_6">
      <!-- 100 -->
      <g style="fill: #262626" transform="translate(987.876776 590.877813) scale(0.1 -0.1)">
       <defs>
        <path id="ArialMT-31" d="M 2384 0 
L 1822 0 
L 1822 3584 
Q 1619 3391 1289 3197 
Q 959 3003 697 2906 
L 697 3450 
Q 1169 3672 1522 3987 
Q 1875 4303 2022 4600 
L 2384 4600 
L 2384 0 
z
" transform="scale(0.015625)"/>
       </defs>
       <use xlink:href="#ArialMT-31"/>
       <use xlink:href="#ArialMT-30" x="55.615234"/>
       <use xlink:href="#ArialMT-30" x="111.230469"/>
      </g>
     </g>
    </g>
   </g>
   <g id="matplotlib.axis_2">
    <g id="ytick_1">
     <g id="line2d_13">
      <path d="M 144 576.72 
L 1036.8 576.72 
" clip-path="url(#p71ef0250bc)" style="fill: none; stroke: #ffffff; stroke-linecap: round"/>
     </g>
     <g id="line2d_14"/>
     <g id="text_7">
      <!-- 0 -->
      <g style="fill: #262626" transform="translate(131.439063 580.298906) scale(0.1 -0.1)">
       <use xlink:href="#ArialMT-30"/>
      </g>
     </g>
    </g>
    <g id="ytick_2">
     <g id="line2d_15">
      <path d="M 144 504.446236 
L 1036.8 504.446236 
" clip-path="url(#p71ef0250bc)" style="fill: none; stroke: #ffffff; stroke-linecap: round"/>
     </g>
     <g id="line2d_16"/>
     <g id="text_8">
      <!-- 200 -->
      <g style="fill: #262626" transform="translate(120.317188 508.025142) scale(0.1 -0.1)">
       <use xlink:href="#ArialMT-32"/>
       <use xlink:href="#ArialMT-30" x="55.615234"/>
       <use xlink:href="#ArialMT-30" x="111.230469"/>
      </g>
     </g>
    </g>
    <g id="ytick_3">
     <g id="line2d_17">
      <path d="M 144 432.172471 
L 1036.8 432.172471 
" clip-path="url(#p71ef0250bc)" style="fill: none; stroke: #ffffff; stroke-linecap: round"/>
     </g>
     <g id="line2d_18"/>
     <g id="text_9">
      <!-- 400 -->
      <g style="fill: #262626" transform="translate(120.317188 435.751378) scale(0.1 -0.1)">
       <use xlink:href="#ArialMT-34"/>
       <use xlink:href="#ArialMT-30" x="55.615234"/>
       <use xlink:href="#ArialMT-30" x="111.230469"/>
      </g>
     </g>
    </g>
    <g id="ytick_4">
     <g id="line2d_19">
      <path d="M 144 359.898707 
L 1036.8 359.898707 
" clip-path="url(#p71ef0250bc)" style="fill: none; stroke: #ffffff; stroke-linecap: round"/>
     </g>
     <g id="line2d_20"/>
     <g id="text_10">
      <!-- 600 -->
      <g style="fill: #262626" transform="translate(120.317188 363.477613) scale(0.1 -0.1)">
       <use xlink:href="#ArialMT-36"/>
       <use xlink:href="#ArialMT-30" x="55.615234"/>
       <use xlink:href="#ArialMT-30" x="111.230469"/>
      </g>
     </g>
    </g>
    <g id="ytick_5">
     <g id="line2d_21">
      <path d="M 144 287.624943 
L 1036.8 287.624943 
" clip-path="url(#p71ef0250bc)" style="fill: none; stroke: #ffffff; stroke-linecap: round"/>
     </g>
     <g id="line2d_22"/>
     <g id="text_11">
      <!-- 800 -->
      <g style="fill: #262626" transform="translate(120.317188 291.203849) scale(0.1 -0.1)">
       <use xlink:href="#ArialMT-38"/>
       <use xlink:href="#ArialMT-30" x="55.615234"/>
       <use xlink:href="#ArialMT-30" x="111.230469"/>
      </g>
     </g>
    </g>
    <g id="ytick_6">
     <g id="line2d_23">
      <path d="M 144 215.351179 
L 1036.8 215.351179 
" clip-path="url(#p71ef0250bc)" style="fill: none; stroke: #ffffff; stroke-linecap: round"/>
     </g>
     <g id="line2d_24"/>
     <g id="text_12">
      <!-- 1000 -->
      <g style="fill: #262626" transform="translate(114.75625 218.930085) scale(0.1 -0.1)">
       <use xlink:href="#ArialMT-31"/>
       <use xlink:href="#ArialMT-30" x="55.615234"/>
       <use xlink:href="#ArialMT-30" x="111.230469"/>
       <use xlink:href="#ArialMT-30" x="166.845703"/>
      </g>
     </g>
    </g>
    <g id="ytick_7">
     <g id="line2d_25">
      <path d="M 144 143.077414 
L 1036.8 143.077414 
" clip-path="url(#p71ef0250bc)" style="fill: none; stroke: #ffffff; stroke-linecap: round"/>
     </g>
     <g id="line2d_26"/>
     <g id="text_13">
      <!-- 1200 -->
      <g style="fill: #262626" transform="translate(114.75625 146.656321) scale(0.1 -0.1)">
       <use xlink:href="#ArialMT-31"/>
       <use xlink:href="#ArialMT-32" x="55.615234"/>
       <use xlink:href="#ArialMT-30" x="111.230469"/>
       <use xlink:href="#ArialMT-30" x="166.845703"/>
      </g>
     </g>
    </g>
   </g>
   <g id="patch_3">
    <path d="M 184.581818 576.72 
L 211.636364 576.72 
L 211.636364 101.52 
L 184.581818 101.52 
z
" clip-path="url(#p71ef0250bc)" style="fill: #4c72b0"/>
   </g>
   <g id="patch_4">
    <path d="M 211.636364 576.72 
L 238.690909 576.72 
L 238.690909 562.987985 
L 211.636364 562.987985 
z
" clip-path="url(#p71ef0250bc)" style="fill: #4c72b0"/>
   </g>
   <g id="patch_5">
    <path d="M 238.690909 576.72 
L 265.745455 576.72 
L 265.745455 567.685779 
L 238.690909 567.685779 
z
" clip-path="url(#p71ef0250bc)" style="fill: #4c72b0"/>
   </g>
   <g id="patch_6">
    <path d="M 265.745455 576.72 
L 292.8 576.72 
L 292.8 555.760608 
L 265.745455 555.760608 
z
" clip-path="url(#p71ef0250bc)" style="fill: #4c72b0"/>
   </g>
   <g id="patch_7">
    <path d="M 292.8 576.72 
L 319.854545 576.72 
L 319.854545 560.097034 
L 292.8 560.097034 
z
" clip-path="url(#p71ef0250bc)" style="fill: #4c72b0"/>
   </g>
   <g id="patch_8">
    <path d="M 319.854545 576.72 
L 346.909091 576.72 
L 346.909091 557.206084 
L 319.854545 557.206084 
z
" clip-path="url(#p71ef0250bc)" style="fill: #4c72b0"/>
   </g>
   <g id="patch_9">
    <path d="M 346.909091 576.72 
L 373.963636 576.72 
L 373.963636 537.330798 
L 346.909091 537.330798 
z
" clip-path="url(#p71ef0250bc)" style="fill: #4c72b0"/>
   </g>
   <g id="patch_10">
    <path d="M 373.963636 576.72 
L 401.018182 576.72 
L 401.018182 548.894601 
L 373.963636 548.894601 
z
" clip-path="url(#p71ef0250bc)" style="fill: #4c72b0"/>
   </g>
   <g id="patch_11">
    <path d="M 401.018182 576.72 
L 428.072727 576.72 
L 428.072727 547.449125 
L 401.018182 547.449125 
z
" clip-path="url(#p71ef0250bc)" style="fill: #4c72b0"/>
   </g>
   <g id="patch_12">
    <path d="M 428.072727 576.72 
L 455.127273 576.72 
L 455.127273 531.548897 
L 428.072727 531.548897 
z
" clip-path="url(#p71ef0250bc)" style="fill: #4c72b0"/>
   </g>
   <g id="patch_13">
    <path d="M 455.127273 576.72 
L 482.181818 576.72 
L 482.181818 543.835437 
L 455.127273 543.835437 
z
" clip-path="url(#p71ef0250bc)" style="fill: #4c72b0"/>
   </g>
   <g id="patch_14">
    <path d="M 482.181818 576.72 
L 509.236364 576.72 
L 509.236364 535.885323 
L 482.181818 535.885323 
z
" clip-path="url(#p71ef0250bc)" style="fill: #4c72b0"/>
   </g>
   <g id="patch_15">
    <path d="M 509.236364 576.72 
L 536.290909 576.72 
L 536.290909 523.237414 
L 509.236364 523.237414 
z
" clip-path="url(#p71ef0250bc)" style="fill: #4c72b0"/>
   </g>
   <g id="patch_16">
    <path d="M 536.290909 576.72 
L 563.345455 576.72 
L 563.345455 525.044259 
L 536.290909 525.044259 
z
" clip-path="url(#p71ef0250bc)" style="fill: #4c72b0"/>
   </g>
   <g id="patch_17">
    <path d="M 563.345455 576.72 
L 590.4 576.72 
L 590.4 532.994373 
L 563.345455 532.994373 
z
" clip-path="url(#p71ef0250bc)" style="fill: #4c72b0"/>
   </g>
   <g id="patch_18">
    <path d="M 590.4 576.72 
L 617.454545 576.72 
L 617.454545 520.707833 
L 590.4 520.707833 
z
" clip-path="url(#p71ef0250bc)" style="fill: #4c72b0"/>
   </g>
   <g id="patch_19">
    <path d="M 617.454545 576.72 
L 644.509091 576.72 
L 644.509091 533.71711 
L 617.454545 533.71711 
z
" clip-path="url(#p71ef0250bc)" style="fill: #4c72b0"/>
   </g>
   <g id="patch_20">
    <path d="M 644.509091 576.72 
L 671.563636 576.72 
L 671.563636 530.103422 
L 644.509091 530.103422 
z
" clip-path="url(#p71ef0250bc)" style="fill: #4c72b0"/>
   </g>
   <g id="patch_21">
    <path d="M 671.563636 576.72 
L 698.618182 576.72 
L 698.618182 523.598783 
L 671.563636 523.598783 
z
" clip-path="url(#p71ef0250bc)" style="fill: #4c72b0"/>
   </g>
   <g id="patch_22">
    <path d="M 698.618182 576.72 
L 725.672727 576.72 
L 725.672727 530.82616 
L 698.618182 530.82616 
z
" clip-path="url(#p71ef0250bc)" style="fill: #4c72b0"/>
   </g>
   <g id="patch_23">
    <path d="M 725.672727 576.72 
L 752.727273 576.72 
L 752.727273 535.162586 
L 725.672727 535.162586 
z
" clip-path="url(#p71ef0250bc)" style="fill: #4c72b0"/>
   </g>
   <g id="patch_24">
    <path d="M 752.727273 576.72 
L 779.781818 576.72 
L 779.781818 522.514677 
L 752.727273 522.514677 
z
" clip-path="url(#p71ef0250bc)" style="fill: #4c72b0"/>
   </g>
   <g id="patch_25">
    <path d="M 779.781818 576.72 
L 806.836364 576.72 
L 806.836364 538.414905 
L 779.781818 538.414905 
z
" clip-path="url(#p71ef0250bc)" style="fill: #4c72b0"/>
   </g>
   <g id="patch_26">
    <path d="M 806.836364 576.72 
L 833.890909 576.72 
L 833.890909 538.776274 
L 806.836364 538.776274 
z
" clip-path="url(#p71ef0250bc)" style="fill: #4c72b0"/>
   </g>
   <g id="patch_27">
    <path d="M 833.890909 576.72 
L 860.945455 576.72 
L 860.945455 542.389962 
L 833.890909 542.389962 
z
" clip-path="url(#p71ef0250bc)" style="fill: #4c72b0"/>
   </g>
   <g id="patch_28">
    <path d="M 860.945455 576.72 
L 888 576.72 
L 888 558.651559 
L 860.945455 558.651559 
z
" clip-path="url(#p71ef0250bc)" style="fill: #4c72b0"/>
   </g>
   <g id="patch_29">
    <path d="M 888 576.72 
L 915.054545 576.72 
L 915.054545 572.383574 
L 888 572.383574 
z
" clip-path="url(#p71ef0250bc)" style="fill: #4c72b0"/>
   </g>
   <g id="patch_30">
    <path d="M 915.054545 576.72 
L 942.109091 576.72 
L 942.109091 573.829049 
L 915.054545 573.829049 
z
" clip-path="url(#p71ef0250bc)" style="fill: #4c72b0"/>
   </g>
   <g id="patch_31">
    <path d="M 942.109091 576.72 
L 969.163636 576.72 
L 969.163636 575.997262 
L 942.109091 575.997262 
z
" clip-path="url(#p71ef0250bc)" style="fill: #4c72b0"/>
   </g>
   <g id="patch_32">
    <path d="M 969.163636 576.72 
L 996.218182 576.72 
L 996.218182 576.358631 
L 969.163636 576.358631 
z
" clip-path="url(#p71ef0250bc)" style="fill: #4c72b0"/>
   </g>
   <g id="patch_33">
    <path d="M 144 576.72 
L 144 77.76 
" style="fill: none"/>
   </g>
   <g id="patch_34">
    <path d="M 1036.8 576.72 
L 1036.8 77.76 
" style="fill: none"/>
   </g>
   <g id="patch_35">
    <path d="M 144 576.72 
L 1036.8 576.72 
" style="fill: none"/>
   </g>
   <g id="patch_36">
    <path d="M 144 77.76 
L 1036.8 77.76 
" style="fill: none"/>
   </g>
   <g id="text_14">
    <!-- Popularity distribution -->
    <g style="fill: #262626" transform="translate(533.04 71.76) scale(0.12 -0.12)">
     <defs>
      <path id="ArialMT-50" d="M 494 0 
L 494 4581 
L 2222 4581 
Q 2678 4581 2919 4538 
Q 3256 4481 3484 4323 
Q 3713 4166 3852 3881 
Q 3991 3597 3991 3256 
Q 3991 2672 3619 2267 
Q 3247 1863 2275 1863 
L 1100 1863 
L 1100 0 
L 494 0 
z
M 1100 2403 
L 2284 2403 
Q 2872 2403 3119 2622 
Q 3366 2841 3366 3238 
Q 3366 3525 3220 3729 
Q 3075 3934 2838 4000 
Q 2684 4041 2272 4041 
L 1100 4041 
L 1100 2403 
z
" transform="scale(0.015625)"/>
      <path id="ArialMT-6f" d="M 213 1659 
Q 213 2581 725 3025 
Q 1153 3394 1769 3394 
Q 2453 3394 2887 2945 
Q 3322 2497 3322 1706 
Q 3322 1066 3130 698 
Q 2938 331 2570 128 
Q 2203 -75 1769 -75 
Q 1072 -75 642 372 
Q 213 819 213 1659 
z
M 791 1659 
Q 791 1022 1069 705 
Q 1347 388 1769 388 
Q 2188 388 2466 706 
Q 2744 1025 2744 1678 
Q 2744 2294 2464 2611 
Q 2184 2928 1769 2928 
Q 1347 2928 1069 2612 
Q 791 2297 791 1659 
z
" transform="scale(0.015625)"/>
      <path id="ArialMT-70" d="M 422 -1272 
L 422 3319 
L 934 3319 
L 934 2888 
Q 1116 3141 1344 3267 
Q 1572 3394 1897 3394 
Q 2322 3394 2647 3175 
Q 2972 2956 3137 2557 
Q 3303 2159 3303 1684 
Q 3303 1175 3120 767 
Q 2938 359 2589 142 
Q 2241 -75 1856 -75 
Q 1575 -75 1351 44 
Q 1128 163 984 344 
L 984 -1272 
L 422 -1272 
z
M 931 1641 
Q 931 1000 1190 694 
Q 1450 388 1819 388 
Q 2194 388 2461 705 
Q 2728 1022 2728 1688 
Q 2728 2322 2467 2637 
Q 2206 2953 1844 2953 
Q 1484 2953 1207 2617 
Q 931 2281 931 1641 
z
" transform="scale(0.015625)"/>
      <path id="ArialMT-75" d="M 2597 0 
L 2597 488 
Q 2209 -75 1544 -75 
Q 1250 -75 995 37 
Q 741 150 617 320 
Q 494 491 444 738 
Q 409 903 409 1263 
L 409 3319 
L 972 3319 
L 972 1478 
Q 972 1038 1006 884 
Q 1059 663 1231 536 
Q 1403 409 1656 409 
Q 1909 409 2131 539 
Q 2353 669 2445 892 
Q 2538 1116 2538 1541 
L 2538 3319 
L 3100 3319 
L 3100 0 
L 2597 0 
z
" transform="scale(0.015625)"/>
      <path id="ArialMT-6c" d="M 409 0 
L 409 4581 
L 972 4581 
L 972 0 
L 409 0 
z
" transform="scale(0.015625)"/>
      <path id="ArialMT-61" d="M 2588 409 
Q 2275 144 1986 34 
Q 1697 -75 1366 -75 
Q 819 -75 525 192 
Q 231 459 231 875 
Q 231 1119 342 1320 
Q 453 1522 633 1644 
Q 813 1766 1038 1828 
Q 1203 1872 1538 1913 
Q 2219 1994 2541 2106 
Q 2544 2222 2544 2253 
Q 2544 2597 2384 2738 
Q 2169 2928 1744 2928 
Q 1347 2928 1158 2789 
Q 969 2650 878 2297 
L 328 2372 
Q 403 2725 575 2942 
Q 747 3159 1072 3276 
Q 1397 3394 1825 3394 
Q 2250 3394 2515 3294 
Q 2781 3194 2906 3042 
Q 3031 2891 3081 2659 
Q 3109 2516 3109 2141 
L 3109 1391 
Q 3109 606 3145 398 
Q 3181 191 3288 0 
L 2700 0 
Q 2613 175 2588 409 
z
M 2541 1666 
Q 2234 1541 1622 1453 
Q 1275 1403 1131 1340 
Q 988 1278 909 1158 
Q 831 1038 831 891 
Q 831 666 1001 516 
Q 1172 366 1500 366 
Q 1825 366 2078 508 
Q 2331 650 2450 897 
Q 2541 1088 2541 1459 
L 2541 1666 
z
" transform="scale(0.015625)"/>
      <path id="ArialMT-72" d="M 416 0 
L 416 3319 
L 922 3319 
L 922 2816 
Q 1116 3169 1280 3281 
Q 1444 3394 1641 3394 
Q 1925 3394 2219 3213 
L 2025 2691 
Q 1819 2813 1613 2813 
Q 1428 2813 1281 2702 
Q 1134 2591 1072 2394 
Q 978 2094 978 1738 
L 978 0 
L 416 0 
z
" transform="scale(0.015625)"/>
      <path id="ArialMT-69" d="M 425 3934 
L 425 4581 
L 988 4581 
L 988 3934 
L 425 3934 
z
M 425 0 
L 425 3319 
L 988 3319 
L 988 0 
L 425 0 
z
" transform="scale(0.015625)"/>
      <path id="ArialMT-74" d="M 1650 503 
L 1731 6 
Q 1494 -44 1306 -44 
Q 1000 -44 831 53 
Q 663 150 594 308 
Q 525 466 525 972 
L 525 2881 
L 113 2881 
L 113 3319 
L 525 3319 
L 525 4141 
L 1084 4478 
L 1084 3319 
L 1650 3319 
L 1650 2881 
L 1084 2881 
L 1084 941 
Q 1084 700 1114 631 
Q 1144 563 1211 522 
Q 1278 481 1403 481 
Q 1497 481 1650 503 
z
" transform="scale(0.015625)"/>
      <path id="ArialMT-79" d="M 397 -1278 
L 334 -750 
Q 519 -800 656 -800 
Q 844 -800 956 -737 
Q 1069 -675 1141 -563 
Q 1194 -478 1313 -144 
Q 1328 -97 1363 -6 
L 103 3319 
L 709 3319 
L 1400 1397 
Q 1534 1031 1641 628 
Q 1738 1016 1872 1384 
L 2581 3319 
L 3144 3319 
L 1881 -56 
Q 1678 -603 1566 -809 
Q 1416 -1088 1222 -1217 
Q 1028 -1347 759 -1347 
Q 597 -1347 397 -1278 
z
" transform="scale(0.015625)"/>
      <path id="ArialMT-20" transform="scale(0.015625)"/>
      <path id="ArialMT-64" d="M 2575 0 
L 2575 419 
Q 2259 -75 1647 -75 
Q 1250 -75 917 144 
Q 584 363 401 755 
Q 219 1147 219 1656 
Q 219 2153 384 2558 
Q 550 2963 881 3178 
Q 1213 3394 1622 3394 
Q 1922 3394 2156 3267 
Q 2391 3141 2538 2938 
L 2538 4581 
L 3097 4581 
L 3097 0 
L 2575 0 
z
M 797 1656 
Q 797 1019 1065 703 
Q 1334 388 1700 388 
Q 2069 388 2326 689 
Q 2584 991 2584 1609 
Q 2584 2291 2321 2609 
Q 2059 2928 1675 2928 
Q 1300 2928 1048 2622 
Q 797 2316 797 1656 
z
" transform="scale(0.015625)"/>
      <path id="ArialMT-73" d="M 197 991 
L 753 1078 
Q 800 744 1014 566 
Q 1228 388 1613 388 
Q 2000 388 2187 545 
Q 2375 703 2375 916 
Q 2375 1106 2209 1216 
Q 2094 1291 1634 1406 
Q 1016 1563 777 1677 
Q 538 1791 414 1992 
Q 291 2194 291 2438 
Q 291 2659 392 2848 
Q 494 3038 669 3163 
Q 800 3259 1026 3326 
Q 1253 3394 1513 3394 
Q 1903 3394 2198 3281 
Q 2494 3169 2634 2976 
Q 2775 2784 2828 2463 
L 2278 2388 
Q 2241 2644 2061 2787 
Q 1881 2931 1553 2931 
Q 1166 2931 1000 2803 
Q 834 2675 834 2503 
Q 834 2394 903 2306 
Q 972 2216 1119 2156 
Q 1203 2125 1616 2013 
Q 2213 1853 2448 1751 
Q 2684 1650 2818 1456 
Q 2953 1263 2953 975 
Q 2953 694 2789 445 
Q 2625 197 2315 61 
Q 2006 -75 1616 -75 
Q 969 -75 630 194 
Q 291 463 197 991 
z
" transform="scale(0.015625)"/>
      <path id="ArialMT-62" d="M 941 0 
L 419 0 
L 419 4581 
L 981 4581 
L 981 2947 
Q 1338 3394 1891 3394 
Q 2197 3394 2470 3270 
Q 2744 3147 2920 2923 
Q 3097 2700 3197 2384 
Q 3297 2069 3297 1709 
Q 3297 856 2875 390 
Q 2453 -75 1863 -75 
Q 1275 -75 941 416 
L 941 0 
z
M 934 1684 
Q 934 1088 1097 822 
Q 1363 388 1816 388 
Q 2184 388 2453 708 
Q 2722 1028 2722 1663 
Q 2722 2313 2464 2622 
Q 2206 2931 1841 2931 
Q 1472 2931 1203 2611 
Q 934 2291 934 1684 
z
" transform="scale(0.015625)"/>
      <path id="ArialMT-6e" d="M 422 0 
L 422 3319 
L 928 3319 
L 928 2847 
Q 1294 3394 1984 3394 
Q 2284 3394 2536 3286 
Q 2788 3178 2913 3003 
Q 3038 2828 3088 2588 
Q 3119 2431 3119 2041 
L 3119 0 
L 2556 0 
L 2556 2019 
Q 2556 2363 2490 2533 
Q 2425 2703 2258 2804 
Q 2091 2906 1866 2906 
Q 1506 2906 1245 2678 
Q 984 2450 984 1813 
L 984 0 
L 422 0 
z
" transform="scale(0.015625)"/>
     </defs>
     <use xlink:href="#ArialMT-50"/>
     <use xlink:href="#ArialMT-6f" x="66.699219"/>
     <use xlink:href="#ArialMT-70" x="122.314453"/>
     <use xlink:href="#ArialMT-75" x="177.929688"/>
     <use xlink:href="#ArialMT-6c" x="233.544922"/>
     <use xlink:href="#ArialMT-61" x="255.761719"/>
     <use xlink:href="#ArialMT-72" x="311.376953"/>
     <use xlink:href="#ArialMT-69" x="344.677734"/>
     <use xlink:href="#ArialMT-74" x="366.894531"/>
     <use xlink:href="#ArialMT-79" x="394.677734"/>
     <use xlink:href="#ArialMT-20" x="444.677734"/>
     <use xlink:href="#ArialMT-64" x="472.460938"/>
     <use xlink:href="#ArialMT-69" x="528.076172"/>
     <use xlink:href="#ArialMT-73" x="550.292969"/>
     <use xlink:href="#ArialMT-74" x="600.292969"/>
     <use xlink:href="#ArialMT-72" x="628.076172"/>
     <use xlink:href="#ArialMT-69" x="661.376953"/>
     <use xlink:href="#ArialMT-62" x="683.59375"/>
     <use xlink:href="#ArialMT-75" x="739.208984"/>
     <use xlink:href="#ArialMT-74" x="794.824219"/>
     <use xlink:href="#ArialMT-69" x="822.607422"/>
     <use xlink:href="#ArialMT-6f" x="844.824219"/>
     <use xlink:href="#ArialMT-6e" x="900.439453"/>
    </g>
   </g>
  </g>
 </g>
 <defs>
  <clipPath id="p71ef0250bc">
   <rect x="144" y="77.76" width="892.8" height="498.96"/>
  </clipPath>
 </defs>
</svg>
