<?xml version="1.0" encoding="utf-8" standalone="no"?>
<!DOCTYPE svg PUBLIC "-//W3C//DTD SVG 1.1//EN"
  "http://www.w3.org/Graphics/SVG/1.1/DTD/svg11.dtd">
<svg xmlns:xlink="http://www.w3.org/1999/xlink" width="1152pt" height="648pt" viewBox="0 0 1152 648" xmlns="http://www.w3.org/2000/svg" version="1.1">
 <metadata>
  <rdf:RDF xmlns:dc="http://purl.org/dc/elements/1.1/" xmlns:cc="http://creativecommons.org/ns#" xmlns:rdf="http://www.w3.org/1999/02/22-rdf-syntax-ns#">
   <cc:Work>
    <dc:type rdf:resource="http://purl.org/dc/dcmitype/StillImage"/>
    <dc:date>2023-08-24T13:31:10.694155</dc:date>
    <dc:format>image/svg+xml</dc:format>
    <dc:creator>
     <cc:Agent>
      <dc:title>Matplotlib v3.7.2, https://matplotlib.org/</dc:title>
     </cc:Agent>
    </dc:creator>
   </cc:Work>
  </rdf:RDF>
 </metadata>
 <defs>
  <style type="text/css">*{stroke-linejoin: round; stroke-linecap: butt}</style>
 </defs>
 <g id="figure_1">
  <g id="patch_1">
   <path d="M 0 648 
L 1152 648 
L 1152 0 
L 0 0 
z
" style="fill: #ffffff"/>
  </g>
  <g id="axes_1">
   <g id="patch_2">
    <path d="M 144 576.72 
L 1036.8 576.72 
L 1036.8 77.76 
L 144 77.76 
z
" style="fill: #eaeaf2"/>
   </g>
   <g id="matplotlib.axis_1">
    <g id="xtick_1">
     <g id="line2d_1">
      <path d="M 144 576.72 
L 144 77.76 
" clip-path="url(#p083b20c1bc)" style="fill: none; stroke: #ffffff; stroke-linecap: round"/>
     </g>
     <g id="line2d_2"/>
     <g id="text_1">
      <!-- 0 -->
      <g style="fill: #262626" transform="translate(141.219531 590.877813) scale(0.1 -0.1)">
       <defs>
        <path id="ArialMT-30" d="M 266 2259 
Q 266 3072 433 3567 
Q 600 4063 929 4331 
Q 1259 4600 1759 4600 
Q 2128 4600 2406 4451 
Q 2684 4303 2865 4023 
Q 3047 3744 3150 3342 
Q 3253 2941 3253 2259 
Q 3253 1453 3087 958 
Q 2922 463 2592 192 
Q 2263 -78 1759 -78 
Q 1097 -78 719 397 
Q 266 969 266 2259 
z
M 844 2259 
Q 844 1131 1108 757 
Q 1372 384 1759 384 
Q 2147 384 2411 759 
Q 2675 1134 2675 2259 
Q 2675 3391 2411 3762 
Q 2147 4134 1753 4134 
Q 1366 4134 1134 3806 
Q 844 3388 844 2259 
z
" transform="scale(0.015625)"/>
       </defs>
       <use xlink:href="#ArialMT-30"/>
      </g>
     </g>
    </g>
    <g id="xtick_2">
     <g id="line2d_3">
      <path d="M 337.246753 576.72 
L 337.246753 77.76 
" clip-path="url(#p083b20c1bc)" style="fill: none; stroke: #ffffff; stroke-linecap: round"/>
     </g>
     <g id="line2d_4"/>
     <g id="text_2">
      <!-- 20 -->
      <g style="fill: #262626" transform="translate(331.685816 590.877813) scale(0.1 -0.1)">
       <defs>
        <path id="ArialMT-32" d="M 3222 541 
L 3222 0 
L 194 0 
Q 188 203 259 391 
Q 375 700 629 1000 
Q 884 1300 1366 1694 
Q 2113 2306 2375 2664 
Q 2638 3022 2638 3341 
Q 2638 3675 2398 3904 
Q 2159 4134 1775 4134 
Q 1369 4134 1125 3890 
Q 881 3647 878 3216 
L 300 3275 
Q 359 3922 746 4261 
Q 1134 4600 1788 4600 
Q 2447 4600 2831 4234 
Q 3216 3869 3216 3328 
Q 3216 3053 3103 2787 
Q 2991 2522 2730 2228 
Q 2469 1934 1863 1422 
Q 1356 997 1212 845 
Q 1069 694 975 541 
L 3222 541 
z
" transform="scale(0.015625)"/>
       </defs>
       <use xlink:href="#ArialMT-32"/>
       <use xlink:href="#ArialMT-30" x="55.615234"/>
      </g>
     </g>
    </g>
    <g id="xtick_3">
     <g id="line2d_5">
      <path d="M 530.493506 576.72 
L 530.493506 77.76 
" clip-path="url(#p083b20c1bc)" style="fill: none; stroke: #ffffff; stroke-linecap: round"/>
     </g>
     <g id="line2d_6"/>
     <g id="text_3">
      <!-- 40 -->
      <g style="fill: #262626" transform="translate(524.932569 590.877813) scale(0.1 -0.1)">
       <defs>
        <path id="ArialMT-34" d="M 2069 0 
L 2069 1097 
L 81 1097 
L 81 1613 
L 2172 4581 
L 2631 4581 
L 2631 1613 
L 3250 1613 
L 3250 1097 
L 2631 1097 
L 2631 0 
L 2069 0 
z
M 2069 1613 
L 2069 3678 
L 634 1613 
L 2069 1613 
z
" transform="scale(0.015625)"/>
       </defs>
       <use xlink:href="#ArialMT-34"/>
       <use xlink:href="#ArialMT-30" x="55.615234"/>
      </g>
     </g>
    </g>
    <g id="xtick_4">
     <g id="line2d_7">
      <path d="M 723.74026 576.72 
L 723.74026 77.76 
" clip-path="url(#p083b20c1bc)" style="fill: none; stroke: #ffffff; stroke-linecap: round"/>
     </g>
     <g id="line2d_8"/>
     <g id="text_4">
      <!-- 60 -->
      <g style="fill: #262626" transform="translate(718.179322 590.877813) scale(0.1 -0.1)">
       <defs>
        <path id="ArialMT-36" d="M 3184 3459 
L 2625 3416 
Q 2550 3747 2413 3897 
Q 2184 4138 1850 4138 
Q 1581 4138 1378 3988 
Q 1113 3794 959 3422 
Q 806 3050 800 2363 
Q 1003 2672 1297 2822 
Q 1591 2972 1913 2972 
Q 2475 2972 2870 2558 
Q 3266 2144 3266 1488 
Q 3266 1056 3080 686 
Q 2894 316 2569 119 
Q 2244 -78 1831 -78 
Q 1128 -78 684 439 
Q 241 956 241 2144 
Q 241 3472 731 4075 
Q 1159 4600 1884 4600 
Q 2425 4600 2770 4297 
Q 3116 3994 3184 3459 
z
M 888 1484 
Q 888 1194 1011 928 
Q 1134 663 1356 523 
Q 1578 384 1822 384 
Q 2178 384 2434 671 
Q 2691 959 2691 1453 
Q 2691 1928 2437 2201 
Q 2184 2475 1800 2475 
Q 1419 2475 1153 2201 
Q 888 1928 888 1484 
z
" transform="scale(0.015625)"/>
       </defs>
       <use xlink:href="#ArialMT-36"/>
       <use xlink:href="#ArialMT-30" x="55.615234"/>
      </g>
     </g>
    </g>
    <g id="xtick_5">
     <g id="line2d_9">
      <path d="M 916.987013 576.72 
L 916.987013 77.76 
" clip-path="url(#p083b20c1bc)" style="fill: none; stroke: #ffffff; stroke-linecap: round"/>
     </g>
     <g id="line2d_10"/>
     <g id="text_5">
      <!-- 80 -->
      <g style="fill: #262626" transform="translate(911.426075 590.877813) scale(0.1 -0.1)">
       <defs>
        <path id="ArialMT-38" d="M 1131 2484 
Q 781 2613 612 2850 
Q 444 3088 444 3419 
Q 444 3919 803 4259 
Q 1163 4600 1759 4600 
Q 2359 4600 2725 4251 
Q 3091 3903 3091 3403 
Q 3091 3084 2923 2848 
Q 2756 2613 2416 2484 
Q 2838 2347 3058 2040 
Q 3278 1734 3278 1309 
Q 3278 722 2862 322 
Q 2447 -78 1769 -78 
Q 1091 -78 675 323 
Q 259 725 259 1325 
Q 259 1772 486 2073 
Q 713 2375 1131 2484 
z
M 1019 3438 
Q 1019 3113 1228 2906 
Q 1438 2700 1772 2700 
Q 2097 2700 2305 2904 
Q 2513 3109 2513 3406 
Q 2513 3716 2298 3927 
Q 2084 4138 1766 4138 
Q 1444 4138 1231 3931 
Q 1019 3725 1019 3438 
z
M 838 1322 
Q 838 1081 952 856 
Q 1066 631 1291 507 
Q 1516 384 1775 384 
Q 2178 384 2440 643 
Q 2703 903 2703 1303 
Q 2703 1709 2433 1975 
Q 2163 2241 1756 2241 
Q 1359 2241 1098 1978 
Q 838 1716 838 1322 
z
" transform="scale(0.015625)"/>
       </defs>
       <use xlink:href="#ArialMT-38"/>
       <use xlink:href="#ArialMT-30" x="55.615234"/>
      </g>
     </g>
    </g>
   </g>
   <g id="matplotlib.axis_2">
    <g id="ytick_1">
     <g id="line2d_11">
      <path d="M 144 550.396627 
L 1036.8 550.396627 
" clip-path="url(#p083b20c1bc)" style="fill: none; stroke: #ffffff; stroke-linecap: round"/>
     </g>
     <g id="line2d_12"/>
     <g id="text_6">
      <!-- 50 Cent -->
      <g style="fill: #262626" transform="translate(101.978125 553.975533) scale(0.1 -0.1)">
       <defs>
        <path id="ArialMT-35" d="M 266 1200 
L 856 1250 
Q 922 819 1161 601 
Q 1400 384 1738 384 
Q 2144 384 2425 690 
Q 2706 997 2706 1503 
Q 2706 1984 2436 2262 
Q 2166 2541 1728 2541 
Q 1456 2541 1237 2417 
Q 1019 2294 894 2097 
L 366 2166 
L 809 4519 
L 3088 4519 
L 3088 3981 
L 1259 3981 
L 1013 2750 
Q 1425 3038 1878 3038 
Q 2478 3038 2890 2622 
Q 3303 2206 3303 1553 
Q 3303 931 2941 478 
Q 2500 -78 1738 -78 
Q 1113 -78 717 272 
Q 322 622 266 1200 
z
" transform="scale(0.015625)"/>
        <path id="ArialMT-20" transform="scale(0.015625)"/>
        <path id="ArialMT-43" d="M 3763 1606 
L 4369 1453 
Q 4178 706 3683 314 
Q 3188 -78 2472 -78 
Q 1731 -78 1267 223 
Q 803 525 561 1097 
Q 319 1669 319 2325 
Q 319 3041 592 3573 
Q 866 4106 1370 4382 
Q 1875 4659 2481 4659 
Q 3169 4659 3637 4309 
Q 4106 3959 4291 3325 
L 3694 3184 
Q 3534 3684 3231 3912 
Q 2928 4141 2469 4141 
Q 1941 4141 1586 3887 
Q 1231 3634 1087 3207 
Q 944 2781 944 2328 
Q 944 1744 1114 1308 
Q 1284 872 1643 656 
Q 2003 441 2422 441 
Q 2931 441 3284 734 
Q 3638 1028 3763 1606 
z
" transform="scale(0.015625)"/>
        <path id="ArialMT-65" d="M 2694 1069 
L 3275 997 
Q 3138 488 2766 206 
Q 2394 -75 1816 -75 
Q 1088 -75 661 373 
Q 234 822 234 1631 
Q 234 2469 665 2931 
Q 1097 3394 1784 3394 
Q 2450 3394 2872 2941 
Q 3294 2488 3294 1666 
Q 3294 1616 3291 1516 
L 816 1516 
Q 847 969 1125 678 
Q 1403 388 1819 388 
Q 2128 388 2347 550 
Q 2566 713 2694 1069 
z
M 847 1978 
L 2700 1978 
Q 2663 2397 2488 2606 
Q 2219 2931 1791 2931 
Q 1403 2931 1139 2672 
Q 875 2413 847 1978 
z
" transform="scale(0.015625)"/>
        <path id="ArialMT-6e" d="M 422 0 
L 422 3319 
L 928 3319 
L 928 2847 
Q 1294 3394 1984 3394 
Q 2284 3394 2536 3286 
Q 2788 3178 2913 3003 
Q 3038 2828 3088 2588 
Q 3119 2431 3119 2041 
L 3119 0 
L 2556 0 
L 2556 2019 
Q 2556 2363 2490 2533 
Q 2425 2703 2258 2804 
Q 2091 2906 1866 2906 
Q 1506 2906 1245 2678 
Q 984 2450 984 1813 
L 984 0 
L 422 0 
z
" transform="scale(0.015625)"/>
        <path id="ArialMT-74" d="M 1650 503 
L 1731 6 
Q 1494 -44 1306 -44 
Q 1000 -44 831 53 
Q 663 150 594 308 
Q 525 466 525 972 
L 525 2881 
L 113 2881 
L 113 3319 
L 525 3319 
L 525 4141 
L 1084 4478 
L 1084 3319 
L 1650 3319 
L 1650 2881 
L 1084 2881 
L 1084 941 
Q 1084 700 1114 631 
Q 1144 563 1211 522 
Q 1278 481 1403 481 
Q 1497 481 1650 503 
z
" transform="scale(0.015625)"/>
       </defs>
       <use xlink:href="#ArialMT-35"/>
       <use xlink:href="#ArialMT-30" x="55.615234"/>
       <use xlink:href="#ArialMT-20" x="111.230469"/>
       <use xlink:href="#ArialMT-43" x="139.013672"/>
       <use xlink:href="#ArialMT-65" x="211.230469"/>
       <use xlink:href="#ArialMT-6e" x="266.845703"/>
       <use xlink:href="#ArialMT-74" x="322.460938"/>
      </g>
     </g>
    </g>
    <g id="ytick_2">
     <g id="line2d_13">
      <path d="M 144 541.288193 
L 1036.8 541.288193 
" clip-path="url(#p083b20c1bc)" style="fill: none; stroke: #ffffff; stroke-linecap: round"/>
     </g>
     <g id="line2d_14"/>
     <g id="text_7">
      <!-- Snakehips -->
      <g style="fill: #262626" transform="translate(90.303125 544.928037) scale(0.1 -0.1)">
       <defs>
        <path id="ArialMT-53" d="M 288 1472 
L 859 1522 
Q 900 1178 1048 958 
Q 1197 738 1509 602 
Q 1822 466 2213 466 
Q 2559 466 2825 569 
Q 3091 672 3220 851 
Q 3350 1031 3350 1244 
Q 3350 1459 3225 1620 
Q 3100 1781 2813 1891 
Q 2628 1963 1997 2114 
Q 1366 2266 1113 2400 
Q 784 2572 623 2826 
Q 463 3081 463 3397 
Q 463 3744 659 4045 
Q 856 4347 1234 4503 
Q 1613 4659 2075 4659 
Q 2584 4659 2973 4495 
Q 3363 4331 3572 4012 
Q 3781 3694 3797 3291 
L 3216 3247 
Q 3169 3681 2898 3903 
Q 2628 4125 2100 4125 
Q 1550 4125 1298 3923 
Q 1047 3722 1047 3438 
Q 1047 3191 1225 3031 
Q 1400 2872 2139 2705 
Q 2878 2538 3153 2413 
Q 3553 2228 3743 1945 
Q 3934 1663 3934 1294 
Q 3934 928 3725 604 
Q 3516 281 3123 101 
Q 2731 -78 2241 -78 
Q 1619 -78 1198 103 
Q 778 284 539 648 
Q 300 1013 288 1472 
z
" transform="scale(0.015625)"/>
        <path id="ArialMT-61" d="M 2588 409 
Q 2275 144 1986 34 
Q 1697 -75 1366 -75 
Q 819 -75 525 192 
Q 231 459 231 875 
Q 231 1119 342 1320 
Q 453 1522 633 1644 
Q 813 1766 1038 1828 
Q 1203 1872 1538 1913 
Q 2219 1994 2541 2106 
Q 2544 2222 2544 2253 
Q 2544 2597 2384 2738 
Q 2169 2928 1744 2928 
Q 1347 2928 1158 2789 
Q 969 2650 878 2297 
L 328 2372 
Q 403 2725 575 2942 
Q 747 3159 1072 3276 
Q 1397 3394 1825 3394 
Q 2250 3394 2515 3294 
Q 2781 3194 2906 3042 
Q 3031 2891 3081 2659 
Q 3109 2516 3109 2141 
L 3109 1391 
Q 3109 606 3145 398 
Q 3181 191 3288 0 
L 2700 0 
Q 2613 175 2588 409 
z
M 2541 1666 
Q 2234 1541 1622 1453 
Q 1275 1403 1131 1340 
Q 988 1278 909 1158 
Q 831 1038 831 891 
Q 831 666 1001 516 
Q 1172 366 1500 366 
Q 1825 366 2078 508 
Q 2331 650 2450 897 
Q 2541 1088 2541 1459 
L 2541 1666 
z
" transform="scale(0.015625)"/>
        <path id="ArialMT-6b" d="M 425 0 
L 425 4581 
L 988 4581 
L 988 1969 
L 2319 3319 
L 3047 3319 
L 1778 2088 
L 3175 0 
L 2481 0 
L 1384 1697 
L 988 1316 
L 988 0 
L 425 0 
z
" transform="scale(0.015625)"/>
        <path id="ArialMT-68" d="M 422 0 
L 422 4581 
L 984 4581 
L 984 2938 
Q 1378 3394 1978 3394 
Q 2347 3394 2619 3248 
Q 2891 3103 3008 2847 
Q 3125 2591 3125 2103 
L 3125 0 
L 2563 0 
L 2563 2103 
Q 2563 2525 2380 2717 
Q 2197 2909 1863 2909 
Q 1613 2909 1392 2779 
Q 1172 2650 1078 2428 
Q 984 2206 984 1816 
L 984 0 
L 422 0 
z
" transform="scale(0.015625)"/>
        <path id="ArialMT-69" d="M 425 3934 
L 425 4581 
L 988 4581 
L 988 3934 
L 425 3934 
z
M 425 0 
L 425 3319 
L 988 3319 
L 988 0 
L 425 0 
z
" transform="scale(0.015625)"/>
        <path id="ArialMT-70" d="M 422 -1272 
L 422 3319 
L 934 3319 
L 934 2888 
Q 1116 3141 1344 3267 
Q 1572 3394 1897 3394 
Q 2322 3394 2647 3175 
Q 2972 2956 3137 2557 
Q 3303 2159 3303 1684 
Q 3303 1175 3120 767 
Q 2938 359 2589 142 
Q 2241 -75 1856 -75 
Q 1575 -75 1351 44 
Q 1128 163 984 344 
L 984 -1272 
L 422 -1272 
z
M 931 1641 
Q 931 1000 1190 694 
Q 1450 388 1819 388 
Q 2194 388 2461 705 
Q 2728 1022 2728 1688 
Q 2728 2322 2467 2637 
Q 2206 2953 1844 2953 
Q 1484 2953 1207 2617 
Q 931 2281 931 1641 
z
" transform="scale(0.015625)"/>
        <path id="ArialMT-73" d="M 197 991 
L 753 1078 
Q 800 744 1014 566 
Q 1228 388 1613 388 
Q 2000 388 2187 545 
Q 2375 703 2375 916 
Q 2375 1106 2209 1216 
Q 2094 1291 1634 1406 
Q 1016 1563 777 1677 
Q 538 1791 414 1992 
Q 291 2194 291 2438 
Q 291 2659 392 2848 
Q 494 3038 669 3163 
Q 800 3259 1026 3326 
Q 1253 3394 1513 3394 
Q 1903 3394 2198 3281 
Q 2494 3169 2634 2976 
Q 2775 2784 2828 2463 
L 2278 2388 
Q 2241 2644 2061 2787 
Q 1881 2931 1553 2931 
Q 1166 2931 1000 2803 
Q 834 2675 834 2503 
Q 834 2394 903 2306 
Q 972 2216 1119 2156 
Q 1203 2125 1616 2013 
Q 2213 1853 2448 1751 
Q 2684 1650 2818 1456 
Q 2953 1263 2953 975 
Q 2953 694 2789 445 
Q 2625 197 2315 61 
Q 2006 -75 1616 -75 
Q 969 -75 630 194 
Q 291 463 197 991 
z
" transform="scale(0.015625)"/>
       </defs>
       <use xlink:href="#ArialMT-53"/>
       <use xlink:href="#ArialMT-6e" x="66.699219"/>
       <use xlink:href="#ArialMT-61" x="122.314453"/>
       <use xlink:href="#ArialMT-6b" x="177.929688"/>
       <use xlink:href="#ArialMT-65" x="227.929688"/>
       <use xlink:href="#ArialMT-68" x="283.544922"/>
       <use xlink:href="#ArialMT-69" x="339.160156"/>
       <use xlink:href="#ArialMT-70" x="361.376953"/>
       <use xlink:href="#ArialMT-73" x="416.992188"/>
      </g>
     </g>
    </g>
    <g id="ytick_3">
     <g id="line2d_15">
      <path d="M 144 532.179759 
L 1036.8 532.179759 
" clip-path="url(#p083b20c1bc)" style="fill: none; stroke: #ffffff; stroke-linecap: round"/>
     </g>
     <g id="line2d_16"/>
     <g id="text_8">
      <!-- Orgi-E -->
      <g style="fill: #262626" transform="translate(108.109375 535.822728) scale(0.1 -0.1)">
       <defs>
        <path id="ArialMT-4f" d="M 309 2231 
Q 309 3372 921 4017 
Q 1534 4663 2503 4663 
Q 3138 4663 3647 4359 
Q 4156 4056 4423 3514 
Q 4691 2972 4691 2284 
Q 4691 1588 4409 1038 
Q 4128 488 3612 205 
Q 3097 -78 2500 -78 
Q 1853 -78 1343 234 
Q 834 547 571 1087 
Q 309 1628 309 2231 
z
M 934 2222 
Q 934 1394 1379 917 
Q 1825 441 2497 441 
Q 3181 441 3623 922 
Q 4066 1403 4066 2288 
Q 4066 2847 3877 3264 
Q 3688 3681 3323 3911 
Q 2959 4141 2506 4141 
Q 1863 4141 1398 3698 
Q 934 3256 934 2222 
z
" transform="scale(0.015625)"/>
        <path id="ArialMT-72" d="M 416 0 
L 416 3319 
L 922 3319 
L 922 2816 
Q 1116 3169 1280 3281 
Q 1444 3394 1641 3394 
Q 1925 3394 2219 3213 
L 2025 2691 
Q 1819 2813 1613 2813 
Q 1428 2813 1281 2702 
Q 1134 2591 1072 2394 
Q 978 2094 978 1738 
L 978 0 
L 416 0 
z
" transform="scale(0.015625)"/>
        <path id="ArialMT-67" d="M 319 -275 
L 866 -356 
Q 900 -609 1056 -725 
Q 1266 -881 1628 -881 
Q 2019 -881 2231 -725 
Q 2444 -569 2519 -288 
Q 2563 -116 2559 434 
Q 2191 0 1641 0 
Q 956 0 581 494 
Q 206 988 206 1678 
Q 206 2153 378 2554 
Q 550 2956 876 3175 
Q 1203 3394 1644 3394 
Q 2231 3394 2613 2919 
L 2613 3319 
L 3131 3319 
L 3131 450 
Q 3131 -325 2973 -648 
Q 2816 -972 2473 -1159 
Q 2131 -1347 1631 -1347 
Q 1038 -1347 672 -1080 
Q 306 -813 319 -275 
z
M 784 1719 
Q 784 1066 1043 766 
Q 1303 466 1694 466 
Q 2081 466 2343 764 
Q 2606 1063 2606 1700 
Q 2606 2309 2336 2618 
Q 2066 2928 1684 2928 
Q 1309 2928 1046 2623 
Q 784 2319 784 1719 
z
" transform="scale(0.015625)"/>
        <path id="ArialMT-2d" d="M 203 1375 
L 203 1941 
L 1931 1941 
L 1931 1375 
L 203 1375 
z
" transform="scale(0.015625)"/>
        <path id="ArialMT-45" d="M 506 0 
L 506 4581 
L 3819 4581 
L 3819 4041 
L 1113 4041 
L 1113 2638 
L 3647 2638 
L 3647 2100 
L 1113 2100 
L 1113 541 
L 3925 541 
L 3925 0 
L 506 0 
z
" transform="scale(0.015625)"/>
       </defs>
       <use xlink:href="#ArialMT-4f"/>
       <use xlink:href="#ArialMT-72" x="77.783203"/>
       <use xlink:href="#ArialMT-67" x="111.083984"/>
       <use xlink:href="#ArialMT-69" x="166.699219"/>
       <use xlink:href="#ArialMT-2d" x="188.916016"/>
       <use xlink:href="#ArialMT-45" x="222.216797"/>
      </g>
     </g>
    </g>
    <g id="ytick_4">
     <g id="line2d_17">
      <path d="M 144 523.071325 
L 1036.8 523.071325 
" clip-path="url(#p083b20c1bc)" style="fill: none; stroke: #ffffff; stroke-linecap: round"/>
     </g>
     <g id="line2d_18"/>
     <g id="text_9">
      <!-- Netsky -->
      <g style="fill: #262626" transform="translate(106.439063 526.650232) scale(0.1 -0.1)">
       <defs>
        <path id="ArialMT-4e" d="M 488 0 
L 488 4581 
L 1109 4581 
L 3516 984 
L 3516 4581 
L 4097 4581 
L 4097 0 
L 3475 0 
L 1069 3600 
L 1069 0 
L 488 0 
z
" transform="scale(0.015625)"/>
        <path id="ArialMT-79" d="M 397 -1278 
L 334 -750 
Q 519 -800 656 -800 
Q 844 -800 956 -737 
Q 1069 -675 1141 -563 
Q 1194 -478 1313 -144 
Q 1328 -97 1363 -6 
L 103 3319 
L 709 3319 
L 1400 1397 
Q 1534 1031 1641 628 
Q 1738 1016 1872 1384 
L 2581 3319 
L 3144 3319 
L 1881 -56 
Q 1678 -603 1566 -809 
Q 1416 -1088 1222 -1217 
Q 1028 -1347 759 -1347 
Q 597 -1347 397 -1278 
z
" transform="scale(0.015625)"/>
       </defs>
       <use xlink:href="#ArialMT-4e"/>
       <use xlink:href="#ArialMT-65" x="72.216797"/>
       <use xlink:href="#ArialMT-74" x="127.832031"/>
       <use xlink:href="#ArialMT-73" x="155.615234"/>
       <use xlink:href="#ArialMT-6b" x="205.615234"/>
       <use xlink:href="#ArialMT-79" x="255.615234"/>
      </g>
     </g>
    </g>
    <g id="ytick_5">
     <g id="line2d_19">
      <path d="M 144 513.962892 
L 1036.8 513.962892 
" clip-path="url(#p083b20c1bc)" style="fill: none; stroke: #ffffff; stroke-linecap: round"/>
     </g>
     <g id="line2d_20"/>
     <g id="text_10">
      <!-- Dimension -->
      <g style="fill: #262626" transform="translate(89.760937 517.541798) scale(0.1 -0.1)">
       <defs>
        <path id="ArialMT-44" d="M 494 0 
L 494 4581 
L 2072 4581 
Q 2606 4581 2888 4516 
Q 3281 4425 3559 4188 
Q 3922 3881 4101 3404 
Q 4281 2928 4281 2316 
Q 4281 1794 4159 1391 
Q 4038 988 3847 723 
Q 3656 459 3429 307 
Q 3203 156 2883 78 
Q 2563 0 2147 0 
L 494 0 
z
M 1100 541 
L 2078 541 
Q 2531 541 2789 625 
Q 3047 709 3200 863 
Q 3416 1078 3536 1442 
Q 3656 1806 3656 2325 
Q 3656 3044 3420 3430 
Q 3184 3816 2847 3947 
Q 2603 4041 2063 4041 
L 1100 4041 
L 1100 541 
z
" transform="scale(0.015625)"/>
        <path id="ArialMT-6d" d="M 422 0 
L 422 3319 
L 925 3319 
L 925 2853 
Q 1081 3097 1340 3245 
Q 1600 3394 1931 3394 
Q 2300 3394 2536 3241 
Q 2772 3088 2869 2813 
Q 3263 3394 3894 3394 
Q 4388 3394 4653 3120 
Q 4919 2847 4919 2278 
L 4919 0 
L 4359 0 
L 4359 2091 
Q 4359 2428 4304 2576 
Q 4250 2725 4106 2815 
Q 3963 2906 3769 2906 
Q 3419 2906 3187 2673 
Q 2956 2441 2956 1928 
L 2956 0 
L 2394 0 
L 2394 2156 
Q 2394 2531 2256 2718 
Q 2119 2906 1806 2906 
Q 1569 2906 1367 2781 
Q 1166 2656 1075 2415 
Q 984 2175 984 1722 
L 984 0 
L 422 0 
z
" transform="scale(0.015625)"/>
        <path id="ArialMT-6f" d="M 213 1659 
Q 213 2581 725 3025 
Q 1153 3394 1769 3394 
Q 2453 3394 2887 2945 
Q 3322 2497 3322 1706 
Q 3322 1066 3130 698 
Q 2938 331 2570 128 
Q 2203 -75 1769 -75 
Q 1072 -75 642 372 
Q 213 819 213 1659 
z
M 791 1659 
Q 791 1022 1069 705 
Q 1347 388 1769 388 
Q 2188 388 2466 706 
Q 2744 1025 2744 1678 
Q 2744 2294 2464 2611 
Q 2184 2928 1769 2928 
Q 1347 2928 1069 2612 
Q 791 2297 791 1659 
z
" transform="scale(0.015625)"/>
       </defs>
       <use xlink:href="#ArialMT-44"/>
       <use xlink:href="#ArialMT-69" x="72.216797"/>
       <use xlink:href="#ArialMT-6d" x="94.433594"/>
       <use xlink:href="#ArialMT-65" x="177.734375"/>
       <use xlink:href="#ArialMT-6e" x="233.349609"/>
       <use xlink:href="#ArialMT-73" x="288.964844"/>
       <use xlink:href="#ArialMT-69" x="338.964844"/>
       <use xlink:href="#ArialMT-6f" x="361.181641"/>
       <use xlink:href="#ArialMT-6e" x="416.796875"/>
      </g>
     </g>
    </g>
    <g id="ytick_6">
     <g id="line2d_21">
      <path d="M 144 504.854458 
L 1036.8 504.854458 
" clip-path="url(#p083b20c1bc)" style="fill: none; stroke: #ffffff; stroke-linecap: round"/>
     </g>
     <g id="line2d_22"/>
     <g id="text_11">
      <!-- Boris Brejcha -->
      <g style="fill: #262626" transform="translate(77.534375 508.433364) scale(0.1 -0.1)">
       <defs>
        <path id="ArialMT-42" d="M 469 0 
L 469 4581 
L 2188 4581 
Q 2713 4581 3030 4442 
Q 3347 4303 3526 4014 
Q 3706 3725 3706 3409 
Q 3706 3116 3547 2856 
Q 3388 2597 3066 2438 
Q 3481 2316 3704 2022 
Q 3928 1728 3928 1328 
Q 3928 1006 3792 729 
Q 3656 453 3456 303 
Q 3256 153 2954 76 
Q 2653 0 2216 0 
L 469 0 
z
M 1075 2656 
L 2066 2656 
Q 2469 2656 2644 2709 
Q 2875 2778 2992 2937 
Q 3109 3097 3109 3338 
Q 3109 3566 3000 3739 
Q 2891 3913 2687 3977 
Q 2484 4041 1991 4041 
L 1075 4041 
L 1075 2656 
z
M 1075 541 
L 2216 541 
Q 2509 541 2628 563 
Q 2838 600 2978 687 
Q 3119 775 3209 942 
Q 3300 1109 3300 1328 
Q 3300 1584 3169 1773 
Q 3038 1963 2805 2039 
Q 2572 2116 2134 2116 
L 1075 2116 
L 1075 541 
z
" transform="scale(0.015625)"/>
        <path id="ArialMT-6a" d="M 419 3928 
L 419 4581 
L 981 4581 
L 981 3928 
L 419 3928 
z
M -294 -1288 
L -188 -809 
Q -19 -853 78 -853 
Q 250 -853 334 -739 
Q 419 -625 419 -169 
L 419 3319 
L 981 3319 
L 981 -181 
Q 981 -794 822 -1034 
Q 619 -1347 147 -1347 
Q -81 -1347 -294 -1288 
z
" transform="scale(0.015625)"/>
        <path id="ArialMT-63" d="M 2588 1216 
L 3141 1144 
Q 3050 572 2676 248 
Q 2303 -75 1759 -75 
Q 1078 -75 664 370 
Q 250 816 250 1647 
Q 250 2184 428 2587 
Q 606 2991 970 3192 
Q 1334 3394 1763 3394 
Q 2303 3394 2647 3120 
Q 2991 2847 3088 2344 
L 2541 2259 
Q 2463 2594 2264 2762 
Q 2066 2931 1784 2931 
Q 1359 2931 1093 2626 
Q 828 2322 828 1663 
Q 828 994 1084 691 
Q 1341 388 1753 388 
Q 2084 388 2306 591 
Q 2528 794 2588 1216 
z
" transform="scale(0.015625)"/>
       </defs>
       <use xlink:href="#ArialMT-42"/>
       <use xlink:href="#ArialMT-6f" x="66.699219"/>
       <use xlink:href="#ArialMT-72" x="122.314453"/>
       <use xlink:href="#ArialMT-69" x="155.615234"/>
       <use xlink:href="#ArialMT-73" x="177.832031"/>
       <use xlink:href="#ArialMT-20" x="227.832031"/>
       <use xlink:href="#ArialMT-42" x="255.615234"/>
       <use xlink:href="#ArialMT-72" x="322.314453"/>
       <use xlink:href="#ArialMT-65" x="355.615234"/>
       <use xlink:href="#ArialMT-6a" x="411.230469"/>
       <use xlink:href="#ArialMT-63" x="433.447266"/>
       <use xlink:href="#ArialMT-68" x="483.447266"/>
       <use xlink:href="#ArialMT-61" x="539.0625"/>
      </g>
     </g>
    </g>
    <g id="ytick_7">
     <g id="line2d_23">
      <path d="M 144 495.746024 
L 1036.8 495.746024 
" clip-path="url(#p083b20c1bc)" style="fill: none; stroke: #ffffff; stroke-linecap: round"/>
     </g>
     <g id="line2d_24"/>
     <g id="text_12">
      <!-- Don Vedda -->
      <g style="fill: #262626" transform="translate(87.514062 499.32493) scale(0.1 -0.1)">
       <defs>
        <path id="ArialMT-56" d="M 1803 0 
L 28 4581 
L 684 4581 
L 1875 1253 
Q 2019 853 2116 503 
Q 2222 878 2363 1253 
L 3600 4581 
L 4219 4581 
L 2425 0 
L 1803 0 
z
" transform="scale(0.015625)"/>
        <path id="ArialMT-64" d="M 2575 0 
L 2575 419 
Q 2259 -75 1647 -75 
Q 1250 -75 917 144 
Q 584 363 401 755 
Q 219 1147 219 1656 
Q 219 2153 384 2558 
Q 550 2963 881 3178 
Q 1213 3394 1622 3394 
Q 1922 3394 2156 3267 
Q 2391 3141 2538 2938 
L 2538 4581 
L 3097 4581 
L 3097 0 
L 2575 0 
z
M 797 1656 
Q 797 1019 1065 703 
Q 1334 388 1700 388 
Q 2069 388 2326 689 
Q 2584 991 2584 1609 
Q 2584 2291 2321 2609 
Q 2059 2928 1675 2928 
Q 1300 2928 1048 2622 
Q 797 2316 797 1656 
z
" transform="scale(0.015625)"/>
       </defs>
       <use xlink:href="#ArialMT-44"/>
       <use xlink:href="#ArialMT-6f" x="72.216797"/>
       <use xlink:href="#ArialMT-6e" x="127.832031"/>
       <use xlink:href="#ArialMT-20" x="183.447266"/>
       <use xlink:href="#ArialMT-56" x="211.230469"/>
       <use xlink:href="#ArialMT-65" x="272.429688"/>
       <use xlink:href="#ArialMT-64" x="328.044922"/>
       <use xlink:href="#ArialMT-64" x="383.660156"/>
       <use xlink:href="#ArialMT-61" x="439.275391"/>
      </g>
     </g>
    </g>
    <g id="ytick_8">
     <g id="line2d_25">
      <path d="M 144 486.63759 
L 1036.8 486.63759 
" clip-path="url(#p083b20c1bc)" style="fill: none; stroke: #ffffff; stroke-linecap: round"/>
     </g>
     <g id="line2d_26"/>
     <g id="text_13">
      <!-- Arctic Monkeys -->
      <g style="fill: #262626" transform="translate(69.209375 490.216497) scale(0.1 -0.1)">
       <defs>
        <path id="ArialMT-41" d="M -9 0 
L 1750 4581 
L 2403 4581 
L 4278 0 
L 3588 0 
L 3053 1388 
L 1138 1388 
L 634 0 
L -9 0 
z
M 1313 1881 
L 2866 1881 
L 2388 3150 
Q 2169 3728 2063 4100 
Q 1975 3659 1816 3225 
L 1313 1881 
z
" transform="scale(0.015625)"/>
        <path id="ArialMT-4d" d="M 475 0 
L 475 4581 
L 1388 4581 
L 2472 1338 
Q 2622 884 2691 659 
Q 2769 909 2934 1394 
L 4031 4581 
L 4847 4581 
L 4847 0 
L 4263 0 
L 4263 3834 
L 2931 0 
L 2384 0 
L 1059 3900 
L 1059 0 
L 475 0 
z
" transform="scale(0.015625)"/>
       </defs>
       <use xlink:href="#ArialMT-41"/>
       <use xlink:href="#ArialMT-72" x="66.699219"/>
       <use xlink:href="#ArialMT-63" x="100"/>
       <use xlink:href="#ArialMT-74" x="150"/>
       <use xlink:href="#ArialMT-69" x="177.783203"/>
       <use xlink:href="#ArialMT-63" x="200"/>
       <use xlink:href="#ArialMT-20" x="250"/>
       <use xlink:href="#ArialMT-4d" x="277.783203"/>
       <use xlink:href="#ArialMT-6f" x="361.083984"/>
       <use xlink:href="#ArialMT-6e" x="416.699219"/>
       <use xlink:href="#ArialMT-6b" x="472.314453"/>
       <use xlink:href="#ArialMT-65" x="522.314453"/>
       <use xlink:href="#ArialMT-79" x="577.929688"/>
       <use xlink:href="#ArialMT-73" x="627.929688"/>
      </g>
     </g>
    </g>
    <g id="ytick_9">
     <g id="line2d_27">
      <path d="M 144 477.529157 
L 1036.8 477.529157 
" clip-path="url(#p083b20c1bc)" style="fill: none; stroke: #ffffff; stroke-linecap: round"/>
     </g>
     <g id="line2d_28"/>
     <g id="text_14">
      <!-- Ariana Grande -->
      <g style="fill: #262626" transform="translate(71.965625 481.108063) scale(0.1 -0.1)">
       <defs>
        <path id="ArialMT-47" d="M 2638 1797 
L 2638 2334 
L 4578 2338 
L 4578 638 
Q 4131 281 3656 101 
Q 3181 -78 2681 -78 
Q 2006 -78 1454 211 
Q 903 500 622 1047 
Q 341 1594 341 2269 
Q 341 2938 620 3517 
Q 900 4097 1425 4378 
Q 1950 4659 2634 4659 
Q 3131 4659 3532 4498 
Q 3934 4338 4162 4050 
Q 4391 3763 4509 3300 
L 3963 3150 
Q 3859 3500 3706 3700 
Q 3553 3900 3268 4020 
Q 2984 4141 2638 4141 
Q 2222 4141 1919 4014 
Q 1616 3888 1430 3681 
Q 1244 3475 1141 3228 
Q 966 2803 966 2306 
Q 966 1694 1177 1281 
Q 1388 869 1791 669 
Q 2194 469 2647 469 
Q 3041 469 3416 620 
Q 3791 772 3984 944 
L 3984 1797 
L 2638 1797 
z
" transform="scale(0.015625)"/>
       </defs>
       <use xlink:href="#ArialMT-41"/>
       <use xlink:href="#ArialMT-72" x="66.699219"/>
       <use xlink:href="#ArialMT-69" x="100"/>
       <use xlink:href="#ArialMT-61" x="122.216797"/>
       <use xlink:href="#ArialMT-6e" x="177.832031"/>
       <use xlink:href="#ArialMT-61" x="233.447266"/>
       <use xlink:href="#ArialMT-20" x="289.0625"/>
       <use xlink:href="#ArialMT-47" x="316.845703"/>
       <use xlink:href="#ArialMT-72" x="394.628906"/>
       <use xlink:href="#ArialMT-61" x="427.929688"/>
       <use xlink:href="#ArialMT-6e" x="483.544922"/>
       <use xlink:href="#ArialMT-64" x="539.160156"/>
       <use xlink:href="#ArialMT-65" x="594.775391"/>
      </g>
     </g>
    </g>
    <g id="ytick_10">
     <g id="line2d_29">
      <path d="M 144 468.420723 
L 1036.8 468.420723 
" clip-path="url(#p083b20c1bc)" style="fill: none; stroke: #ffffff; stroke-linecap: round"/>
     </g>
     <g id="line2d_30"/>
     <g id="text_15">
      <!-- Timbaland -->
      <g style="fill: #262626" transform="translate(90.689063 471.999629) scale(0.1 -0.1)">
       <defs>
        <path id="ArialMT-54" d="M 1659 0 
L 1659 4041 
L 150 4041 
L 150 4581 
L 3781 4581 
L 3781 4041 
L 2266 4041 
L 2266 0 
L 1659 0 
z
" transform="scale(0.015625)"/>
        <path id="ArialMT-62" d="M 941 0 
L 419 0 
L 419 4581 
L 981 4581 
L 981 2947 
Q 1338 3394 1891 3394 
Q 2197 3394 2470 3270 
Q 2744 3147 2920 2923 
Q 3097 2700 3197 2384 
Q 3297 2069 3297 1709 
Q 3297 856 2875 390 
Q 2453 -75 1863 -75 
Q 1275 -75 941 416 
L 941 0 
z
M 934 1684 
Q 934 1088 1097 822 
Q 1363 388 1816 388 
Q 2184 388 2453 708 
Q 2722 1028 2722 1663 
Q 2722 2313 2464 2622 
Q 2206 2931 1841 2931 
Q 1472 2931 1203 2611 
Q 934 2291 934 1684 
z
" transform="scale(0.015625)"/>
        <path id="ArialMT-6c" d="M 409 0 
L 409 4581 
L 972 4581 
L 972 0 
L 409 0 
z
" transform="scale(0.015625)"/>
       </defs>
       <use xlink:href="#ArialMT-54"/>
       <use xlink:href="#ArialMT-69" x="57.333984"/>
       <use xlink:href="#ArialMT-6d" x="79.550781"/>
       <use xlink:href="#ArialMT-62" x="162.851562"/>
       <use xlink:href="#ArialMT-61" x="218.466797"/>
       <use xlink:href="#ArialMT-6c" x="274.082031"/>
       <use xlink:href="#ArialMT-61" x="296.298828"/>
       <use xlink:href="#ArialMT-6e" x="351.914062"/>
       <use xlink:href="#ArialMT-64" x="407.529297"/>
      </g>
     </g>
    </g>
    <g id="ytick_11">
     <g id="line2d_31">
      <path d="M 144 459.312289 
L 1036.8 459.312289 
" clip-path="url(#p083b20c1bc)" style="fill: none; stroke: #ffffff; stroke-linecap: round"/>
     </g>
     <g id="line2d_32"/>
     <g id="text_16">
      <!-- Paramore -->
      <g style="fill: #262626" transform="translate(93.096875 462.891195) scale(0.1 -0.1)">
       <defs>
        <path id="ArialMT-50" d="M 494 0 
L 494 4581 
L 2222 4581 
Q 2678 4581 2919 4538 
Q 3256 4481 3484 4323 
Q 3713 4166 3852 3881 
Q 3991 3597 3991 3256 
Q 3991 2672 3619 2267 
Q 3247 1863 2275 1863 
L 1100 1863 
L 1100 0 
L 494 0 
z
M 1100 2403 
L 2284 2403 
Q 2872 2403 3119 2622 
Q 3366 2841 3366 3238 
Q 3366 3525 3220 3729 
Q 3075 3934 2838 4000 
Q 2684 4041 2272 4041 
L 1100 4041 
L 1100 2403 
z
" transform="scale(0.015625)"/>
       </defs>
       <use xlink:href="#ArialMT-50"/>
       <use xlink:href="#ArialMT-61" x="66.699219"/>
       <use xlink:href="#ArialMT-72" x="122.314453"/>
       <use xlink:href="#ArialMT-61" x="155.615234"/>
       <use xlink:href="#ArialMT-6d" x="211.230469"/>
       <use xlink:href="#ArialMT-6f" x="294.53125"/>
       <use xlink:href="#ArialMT-72" x="350.146484"/>
       <use xlink:href="#ArialMT-65" x="383.447266"/>
      </g>
     </g>
    </g>
    <g id="ytick_12">
     <g id="line2d_33">
      <path d="M 144 450.203855 
L 1036.8 450.203855 
" clip-path="url(#p083b20c1bc)" style="fill: none; stroke: #ffffff; stroke-linecap: round"/>
     </g>
     <g id="line2d_34"/>
     <g id="text_17">
      <!-- Daft Punk -->
      <g style="fill: #262626" transform="translate(93.090625 453.782762) scale(0.1 -0.1)">
       <defs>
        <path id="ArialMT-66" d="M 556 0 
L 556 2881 
L 59 2881 
L 59 3319 
L 556 3319 
L 556 3672 
Q 556 4006 616 4169 
Q 697 4388 901 4523 
Q 1106 4659 1475 4659 
Q 1713 4659 2000 4603 
L 1916 4113 
Q 1741 4144 1584 4144 
Q 1328 4144 1222 4034 
Q 1116 3925 1116 3625 
L 1116 3319 
L 1763 3319 
L 1763 2881 
L 1116 2881 
L 1116 0 
L 556 0 
z
" transform="scale(0.015625)"/>
        <path id="ArialMT-75" d="M 2597 0 
L 2597 488 
Q 2209 -75 1544 -75 
Q 1250 -75 995 37 
Q 741 150 617 320 
Q 494 491 444 738 
Q 409 903 409 1263 
L 409 3319 
L 972 3319 
L 972 1478 
Q 972 1038 1006 884 
Q 1059 663 1231 536 
Q 1403 409 1656 409 
Q 1909 409 2131 539 
Q 2353 669 2445 892 
Q 2538 1116 2538 1541 
L 2538 3319 
L 3100 3319 
L 3100 0 
L 2597 0 
z
" transform="scale(0.015625)"/>
       </defs>
       <use xlink:href="#ArialMT-44"/>
       <use xlink:href="#ArialMT-61" x="72.216797"/>
       <use xlink:href="#ArialMT-66" x="127.832031"/>
       <use xlink:href="#ArialMT-74" x="155.615234"/>
       <use xlink:href="#ArialMT-20" x="183.398438"/>
       <use xlink:href="#ArialMT-50" x="211.181641"/>
       <use xlink:href="#ArialMT-75" x="277.880859"/>
       <use xlink:href="#ArialMT-6e" x="333.496094"/>
       <use xlink:href="#ArialMT-6b" x="389.111328"/>
      </g>
     </g>
    </g>
    <g id="ytick_13">
     <g id="line2d_35">
      <path d="M 144 441.095422 
L 1036.8 441.095422 
" clip-path="url(#p083b20c1bc)" style="fill: none; stroke: #ffffff; stroke-linecap: round"/>
     </g>
     <g id="line2d_36"/>
     <g id="text_18">
      <!-- Defences -->
      <g style="fill: #262626" transform="translate(94.75625 444.674328) scale(0.1 -0.1)">
       <use xlink:href="#ArialMT-44"/>
       <use xlink:href="#ArialMT-65" x="72.216797"/>
       <use xlink:href="#ArialMT-66" x="127.832031"/>
       <use xlink:href="#ArialMT-65" x="155.615234"/>
       <use xlink:href="#ArialMT-6e" x="211.230469"/>
       <use xlink:href="#ArialMT-63" x="266.845703"/>
       <use xlink:href="#ArialMT-65" x="316.845703"/>
       <use xlink:href="#ArialMT-73" x="372.460938"/>
      </g>
     </g>
    </g>
    <g id="ytick_14">
     <g id="line2d_37">
      <path d="M 144 431.986988 
L 1036.8 431.986988 
" clip-path="url(#p083b20c1bc)" style="fill: none; stroke: #ffffff; stroke-linecap: round"/>
     </g>
     <g id="line2d_38"/>
     <g id="text_19">
      <!-- JAY-Z -->
      <g style="fill: #262626" transform="translate(110.871875 435.565894) scale(0.1 -0.1)">
       <defs>
        <path id="ArialMT-4a" d="M 184 1300 
L 731 1375 
Q 753 850 928 656 
Q 1103 463 1413 463 
Q 1641 463 1806 567 
Q 1972 672 2034 851 
Q 2097 1031 2097 1425 
L 2097 4581 
L 2703 4581 
L 2703 1459 
Q 2703 884 2564 568 
Q 2425 253 2123 87 
Q 1822 -78 1416 -78 
Q 813 -78 492 269 
Q 172 616 184 1300 
z
" transform="scale(0.015625)"/>
        <path id="ArialMT-59" d="M 1784 0 
L 1784 1941 
L 19 4581 
L 756 4581 
L 1659 3200 
Q 1909 2813 2125 2425 
Q 2331 2784 2625 3234 
L 3513 4581 
L 4219 4581 
L 2391 1941 
L 2391 0 
L 1784 0 
z
" transform="scale(0.015625)"/>
        <path id="ArialMT-5a" d="M 128 0 
L 128 563 
L 2475 3497 
Q 2725 3809 2950 4041 
L 394 4041 
L 394 4581 
L 3675 4581 
L 3675 4041 
L 1103 863 
L 825 541 
L 3750 541 
L 3750 0 
L 128 0 
z
" transform="scale(0.015625)"/>
       </defs>
       <use xlink:href="#ArialMT-4a"/>
       <use xlink:href="#ArialMT-41" x="50"/>
       <use xlink:href="#ArialMT-59" x="109.324219"/>
       <use xlink:href="#ArialMT-2d" x="166.898438"/>
       <use xlink:href="#ArialMT-5a" x="200.199219"/>
      </g>
     </g>
    </g>
    <g id="ytick_15">
     <g id="line2d_39">
      <path d="M 144 422.878554 
L 1036.8 422.878554 
" clip-path="url(#p083b20c1bc)" style="fill: none; stroke: #ffffff; stroke-linecap: round"/>
     </g>
     <g id="line2d_40"/>
     <g id="text_20">
      <!-- Beyoncé -->
      <g style="fill: #262626" transform="translate(98.085938 426.476992) scale(0.1 -0.1)">
       <defs>
        <path id="ArialMT-e9" d="M 2694 1069 
L 3275 997 
Q 3138 488 2766 206 
Q 2394 -75 1816 -75 
Q 1088 -75 661 373 
Q 234 822 234 1631 
Q 234 2469 665 2931 
Q 1097 3394 1784 3394 
Q 2450 3394 2872 2941 
Q 3294 2488 3294 1666 
Q 3294 1616 3291 1516 
L 816 1516 
Q 847 969 1125 678 
Q 1403 388 1819 388 
Q 2128 388 2347 550 
Q 2566 713 2694 1069 
z
M 847 1978 
L 2700 1978 
Q 2663 2397 2488 2606 
Q 2219 2931 1791 2931 
Q 1403 2931 1139 2672 
Q 875 2413 847 1978 
z
M 1454 3731 
L 1869 4606 
L 2607 4606 
L 1919 3731 
L 1454 3731 
z
" transform="scale(0.015625)"/>
       </defs>
       <use xlink:href="#ArialMT-42"/>
       <use xlink:href="#ArialMT-65" x="66.699219"/>
       <use xlink:href="#ArialMT-79" x="122.314453"/>
       <use xlink:href="#ArialMT-6f" x="172.314453"/>
       <use xlink:href="#ArialMT-6e" x="227.929688"/>
       <use xlink:href="#ArialMT-63" x="283.544922"/>
       <use xlink:href="#ArialMT-e9" x="333.544922"/>
      </g>
     </g>
    </g>
    <g id="ytick_16">
     <g id="line2d_41">
      <path d="M 144 413.77012 
L 1036.8 413.77012 
" clip-path="url(#p083b20c1bc)" style="fill: none; stroke: #ffffff; stroke-linecap: round"/>
     </g>
     <g id="line2d_42"/>
     <g id="text_21">
      <!-- Hozier -->
      <g style="fill: #262626" transform="translate(108.104687 417.349027) scale(0.1 -0.1)">
       <defs>
        <path id="ArialMT-48" d="M 513 0 
L 513 4581 
L 1119 4581 
L 1119 2700 
L 3500 2700 
L 3500 4581 
L 4106 4581 
L 4106 0 
L 3500 0 
L 3500 2159 
L 1119 2159 
L 1119 0 
L 513 0 
z
" transform="scale(0.015625)"/>
        <path id="ArialMT-7a" d="M 125 0 
L 125 456 
L 2238 2881 
Q 1878 2863 1603 2863 
L 250 2863 
L 250 3319 
L 2963 3319 
L 2963 2947 
L 1166 841 
L 819 456 
Q 1197 484 1528 484 
L 3063 484 
L 3063 0 
L 125 0 
z
" transform="scale(0.015625)"/>
       </defs>
       <use xlink:href="#ArialMT-48"/>
       <use xlink:href="#ArialMT-6f" x="72.216797"/>
       <use xlink:href="#ArialMT-7a" x="127.832031"/>
       <use xlink:href="#ArialMT-69" x="177.832031"/>
       <use xlink:href="#ArialMT-65" x="200.048828"/>
       <use xlink:href="#ArialMT-72" x="255.664062"/>
      </g>
     </g>
    </g>
    <g id="ytick_17">
     <g id="line2d_43">
      <path d="M 144 404.661687 
L 1036.8 404.661687 
" clip-path="url(#p083b20c1bc)" style="fill: none; stroke: #ffffff; stroke-linecap: round"/>
     </g>
     <g id="line2d_44"/>
     <g id="text_22">
      <!-- Nas -->
      <g style="fill: #262626" transform="translate(119.217187 408.240593) scale(0.1 -0.1)">
       <use xlink:href="#ArialMT-4e"/>
       <use xlink:href="#ArialMT-61" x="72.216797"/>
       <use xlink:href="#ArialMT-73" x="127.832031"/>
      </g>
     </g>
    </g>
    <g id="ytick_18">
     <g id="line2d_45">
      <path d="M 144 395.553253 
L 1036.8 395.553253 
" clip-path="url(#p083b20c1bc)" style="fill: none; stroke: #ffffff; stroke-linecap: round"/>
     </g>
     <g id="line2d_46"/>
     <g id="text_23">
      <!-- Rihanna -->
      <g style="fill: #262626" transform="translate(99.751563 399.132159) scale(0.1 -0.1)">
       <defs>
        <path id="ArialMT-52" d="M 503 0 
L 503 4581 
L 2534 4581 
Q 3147 4581 3465 4457 
Q 3784 4334 3975 4021 
Q 4166 3709 4166 3331 
Q 4166 2844 3850 2509 
Q 3534 2175 2875 2084 
Q 3116 1969 3241 1856 
Q 3506 1613 3744 1247 
L 4541 0 
L 3778 0 
L 3172 953 
Q 2906 1366 2734 1584 
Q 2563 1803 2427 1890 
Q 2291 1978 2150 2013 
Q 2047 2034 1813 2034 
L 1109 2034 
L 1109 0 
L 503 0 
z
M 1109 2559 
L 2413 2559 
Q 2828 2559 3062 2645 
Q 3297 2731 3419 2920 
Q 3541 3109 3541 3331 
Q 3541 3656 3305 3865 
Q 3069 4075 2559 4075 
L 1109 4075 
L 1109 2559 
z
" transform="scale(0.015625)"/>
       </defs>
       <use xlink:href="#ArialMT-52"/>
       <use xlink:href="#ArialMT-69" x="72.216797"/>
       <use xlink:href="#ArialMT-68" x="94.433594"/>
       <use xlink:href="#ArialMT-61" x="150.048828"/>
       <use xlink:href="#ArialMT-6e" x="205.664062"/>
       <use xlink:href="#ArialMT-6e" x="261.279297"/>
       <use xlink:href="#ArialMT-61" x="316.894531"/>
      </g>
     </g>
    </g>
    <g id="ytick_19">
     <g id="line2d_47">
      <path d="M 144 386.444819 
L 1036.8 386.444819 
" clip-path="url(#p083b20c1bc)" style="fill: none; stroke: #ffffff; stroke-linecap: round"/>
     </g>
     <g id="line2d_48"/>
     <g id="text_24">
      <!-- deadmau5 -->
      <g style="fill: #262626" transform="translate(89.74375 390.023726) scale(0.1 -0.1)">
       <use xlink:href="#ArialMT-64"/>
       <use xlink:href="#ArialMT-65" x="55.615234"/>
       <use xlink:href="#ArialMT-61" x="111.230469"/>
       <use xlink:href="#ArialMT-64" x="166.845703"/>
       <use xlink:href="#ArialMT-6d" x="222.460938"/>
       <use xlink:href="#ArialMT-61" x="305.761719"/>
       <use xlink:href="#ArialMT-75" x="361.376953"/>
       <use xlink:href="#ArialMT-35" x="416.992188"/>
      </g>
     </g>
    </g>
    <g id="ytick_20">
     <g id="line2d_49">
      <path d="M 144 377.336386 
L 1036.8 377.336386 
" clip-path="url(#p083b20c1bc)" style="fill: none; stroke: #ffffff; stroke-linecap: round"/>
     </g>
     <g id="line2d_50"/>
     <g id="text_25">
      <!-- Rain City Drive -->
      <g style="fill: #262626" transform="translate(70.321875 380.976229) scale(0.1 -0.1)">
       <defs>
        <path id="ArialMT-76" d="M 1344 0 
L 81 3319 
L 675 3319 
L 1388 1331 
Q 1503 1009 1600 663 
Q 1675 925 1809 1294 
L 2547 3319 
L 3125 3319 
L 1869 0 
L 1344 0 
z
" transform="scale(0.015625)"/>
       </defs>
       <use xlink:href="#ArialMT-52"/>
       <use xlink:href="#ArialMT-61" x="72.216797"/>
       <use xlink:href="#ArialMT-69" x="127.832031"/>
       <use xlink:href="#ArialMT-6e" x="150.048828"/>
       <use xlink:href="#ArialMT-20" x="205.664062"/>
       <use xlink:href="#ArialMT-43" x="233.447266"/>
       <use xlink:href="#ArialMT-69" x="305.664062"/>
       <use xlink:href="#ArialMT-74" x="327.880859"/>
       <use xlink:href="#ArialMT-79" x="355.664062"/>
       <use xlink:href="#ArialMT-20" x="405.664062"/>
       <use xlink:href="#ArialMT-44" x="433.447266"/>
       <use xlink:href="#ArialMT-72" x="505.664062"/>
       <use xlink:href="#ArialMT-69" x="538.964844"/>
       <use xlink:href="#ArialMT-76" x="561.181641"/>
       <use xlink:href="#ArialMT-65" x="611.181641"/>
      </g>
     </g>
    </g>
    <g id="ytick_21">
     <g id="line2d_51">
      <path d="M 144 368.227952 
L 1036.8 368.227952 
" clip-path="url(#p083b20c1bc)" style="fill: none; stroke: #ffffff; stroke-linecap: round"/>
     </g>
     <g id="line2d_52"/>
     <g id="text_26">
      <!-- Mako -->
      <g style="fill: #262626" transform="translate(112.548438 371.806858) scale(0.1 -0.1)">
       <use xlink:href="#ArialMT-4d"/>
       <use xlink:href="#ArialMT-61" x="83.300781"/>
       <use xlink:href="#ArialMT-6b" x="138.916016"/>
       <use xlink:href="#ArialMT-6f" x="188.916016"/>
      </g>
     </g>
    </g>
    <g id="ytick_22">
     <g id="line2d_53">
      <path d="M 144 359.119518 
L 1036.8 359.119518 
" clip-path="url(#p083b20c1bc)" style="fill: none; stroke: #ffffff; stroke-linecap: round"/>
     </g>
     <g id="line2d_54"/>
     <g id="text_27">
      <!-- Michael Jackson -->
      <g style="fill: #262626" transform="translate(63.082813 362.698424) scale(0.1 -0.1)">
       <use xlink:href="#ArialMT-4d"/>
       <use xlink:href="#ArialMT-69" x="83.300781"/>
       <use xlink:href="#ArialMT-63" x="105.517578"/>
       <use xlink:href="#ArialMT-68" x="155.517578"/>
       <use xlink:href="#ArialMT-61" x="211.132812"/>
       <use xlink:href="#ArialMT-65" x="266.748047"/>
       <use xlink:href="#ArialMT-6c" x="322.363281"/>
       <use xlink:href="#ArialMT-20" x="344.580078"/>
       <use xlink:href="#ArialMT-4a" x="372.363281"/>
       <use xlink:href="#ArialMT-61" x="422.363281"/>
       <use xlink:href="#ArialMT-63" x="477.978516"/>
       <use xlink:href="#ArialMT-6b" x="527.978516"/>
       <use xlink:href="#ArialMT-73" x="577.978516"/>
       <use xlink:href="#ArialMT-6f" x="627.978516"/>
       <use xlink:href="#ArialMT-6e" x="683.59375"/>
      </g>
     </g>
    </g>
    <g id="ytick_23">
     <g id="line2d_55">
      <path d="M 144 350.011084 
L 1036.8 350.011084 
" clip-path="url(#p083b20c1bc)" style="fill: none; stroke: #ffffff; stroke-linecap: round"/>
     </g>
     <g id="line2d_56"/>
     <g id="text_28">
      <!-- James Horner -->
      <g style="fill: #262626" transform="translate(74.20625 353.589991) scale(0.1 -0.1)">
       <use xlink:href="#ArialMT-4a"/>
       <use xlink:href="#ArialMT-61" x="50"/>
       <use xlink:href="#ArialMT-6d" x="105.615234"/>
       <use xlink:href="#ArialMT-65" x="188.916016"/>
       <use xlink:href="#ArialMT-73" x="244.53125"/>
       <use xlink:href="#ArialMT-20" x="294.53125"/>
       <use xlink:href="#ArialMT-48" x="322.314453"/>
       <use xlink:href="#ArialMT-6f" x="394.53125"/>
       <use xlink:href="#ArialMT-72" x="450.146484"/>
       <use xlink:href="#ArialMT-6e" x="483.447266"/>
       <use xlink:href="#ArialMT-65" x="539.0625"/>
       <use xlink:href="#ArialMT-72" x="594.677734"/>
      </g>
     </g>
    </g>
    <g id="ytick_24">
     <g id="line2d_57">
      <path d="M 144 340.902651 
L 1036.8 340.902651 
" clip-path="url(#p083b20c1bc)" style="fill: none; stroke: #ffffff; stroke-linecap: round"/>
     </g>
     <g id="line2d_58"/>
     <g id="text_29">
      <!-- Justin Timberlake -->
      <g style="fill: #262626" transform="translate(59.195312 344.481557) scale(0.1 -0.1)">
       <use xlink:href="#ArialMT-4a"/>
       <use xlink:href="#ArialMT-75" x="50"/>
       <use xlink:href="#ArialMT-73" x="105.615234"/>
       <use xlink:href="#ArialMT-74" x="155.615234"/>
       <use xlink:href="#ArialMT-69" x="183.398438"/>
       <use xlink:href="#ArialMT-6e" x="205.615234"/>
       <use xlink:href="#ArialMT-20" x="261.230469"/>
       <use xlink:href="#ArialMT-54" x="287.263672"/>
       <use xlink:href="#ArialMT-69" x="344.597656"/>
       <use xlink:href="#ArialMT-6d" x="366.814453"/>
       <use xlink:href="#ArialMT-62" x="450.115234"/>
       <use xlink:href="#ArialMT-65" x="505.730469"/>
       <use xlink:href="#ArialMT-72" x="561.345703"/>
       <use xlink:href="#ArialMT-6c" x="594.646484"/>
       <use xlink:href="#ArialMT-61" x="616.863281"/>
       <use xlink:href="#ArialMT-6b" x="672.478516"/>
       <use xlink:href="#ArialMT-65" x="722.478516"/>
      </g>
     </g>
    </g>
    <g id="ytick_25">
     <g id="line2d_59">
      <path d="M 144 331.794217 
L 1036.8 331.794217 
" clip-path="url(#p083b20c1bc)" style="fill: none; stroke: #ffffff; stroke-linecap: round"/>
     </g>
     <g id="line2d_60"/>
     <g id="text_30">
      <!-- Avicii -->
      <g style="fill: #262626" transform="translate(113.839062 335.373123) scale(0.1 -0.1)">
       <use xlink:href="#ArialMT-41"/>
       <use xlink:href="#ArialMT-76" x="64.949219"/>
       <use xlink:href="#ArialMT-69" x="114.949219"/>
       <use xlink:href="#ArialMT-63" x="137.166016"/>
       <use xlink:href="#ArialMT-69" x="187.166016"/>
       <use xlink:href="#ArialMT-69" x="209.382812"/>
      </g>
     </g>
    </g>
    <g id="ytick_26">
     <g id="line2d_61">
      <path d="M 144 322.685783 
L 1036.8 322.685783 
" clip-path="url(#p083b20c1bc)" style="fill: none; stroke: #ffffff; stroke-linecap: round"/>
     </g>
     <g id="line2d_62"/>
     <g id="text_31">
      <!-- KAYTRANADA -->
      <g style="fill: #262626" transform="translate(69.942188 326.264689) scale(0.1 -0.1)">
       <defs>
        <path id="ArialMT-4b" d="M 469 0 
L 469 4581 
L 1075 4581 
L 1075 2309 
L 3350 4581 
L 4172 4581 
L 2250 2725 
L 4256 0 
L 3456 0 
L 1825 2319 
L 1075 1588 
L 1075 0 
L 469 0 
z
" transform="scale(0.015625)"/>
       </defs>
       <use xlink:href="#ArialMT-4b"/>
       <use xlink:href="#ArialMT-41" x="66.699219"/>
       <use xlink:href="#ArialMT-59" x="126.023438"/>
       <use xlink:href="#ArialMT-54" x="192.722656"/>
       <use xlink:href="#ArialMT-52" x="253.806641"/>
       <use xlink:href="#ArialMT-41" x="326.023438"/>
       <use xlink:href="#ArialMT-4e" x="392.722656"/>
       <use xlink:href="#ArialMT-41" x="464.939453"/>
       <use xlink:href="#ArialMT-44" x="531.638672"/>
       <use xlink:href="#ArialMT-41" x="603.855469"/>
      </g>
     </g>
    </g>
    <g id="ytick_27">
     <g id="line2d_63">
      <path d="M 144 313.577349 
L 1036.8 313.577349 
" clip-path="url(#p083b20c1bc)" style="fill: none; stroke: #ffffff; stroke-linecap: round"/>
     </g>
     <g id="line2d_64"/>
     <g id="text_32">
      <!-- Gang Starr -->
      <g style="fill: #262626" transform="translate(88.092187 317.217193) scale(0.1 -0.1)">
       <use xlink:href="#ArialMT-47"/>
       <use xlink:href="#ArialMT-61" x="77.783203"/>
       <use xlink:href="#ArialMT-6e" x="133.398438"/>
       <use xlink:href="#ArialMT-67" x="189.013672"/>
       <use xlink:href="#ArialMT-20" x="244.628906"/>
       <use xlink:href="#ArialMT-53" x="272.412109"/>
       <use xlink:href="#ArialMT-74" x="339.111328"/>
       <use xlink:href="#ArialMT-61" x="366.894531"/>
       <use xlink:href="#ArialMT-72" x="422.509766"/>
       <use xlink:href="#ArialMT-72" x="455.810547"/>
      </g>
     </g>
    </g>
    <g id="ytick_28">
     <g id="line2d_65">
      <path d="M 144 304.468916 
L 1036.8 304.468916 
" clip-path="url(#p083b20c1bc)" style="fill: none; stroke: #ffffff; stroke-linecap: round"/>
     </g>
     <g id="line2d_66"/>
     <g id="text_33">
      <!-- Nirvana -->
      <g style="fill: #262626" transform="translate(102.54375 308.047822) scale(0.1 -0.1)">
       <use xlink:href="#ArialMT-4e"/>
       <use xlink:href="#ArialMT-69" x="72.216797"/>
       <use xlink:href="#ArialMT-72" x="94.433594"/>
       <use xlink:href="#ArialMT-76" x="127.734375"/>
       <use xlink:href="#ArialMT-61" x="177.734375"/>
       <use xlink:href="#ArialMT-6e" x="233.349609"/>
       <use xlink:href="#ArialMT-61" x="288.964844"/>
      </g>
     </g>
    </g>
    <g id="ytick_29">
     <g id="line2d_67">
      <path d="M 144 295.360482 
L 1036.8 295.360482 
" clip-path="url(#p083b20c1bc)" style="fill: none; stroke: #ffffff; stroke-linecap: round"/>
     </g>
     <g id="line2d_68"/>
     <g id="text_34">
      <!-- Blacktop Mojo -->
      <g style="fill: #262626" transform="translate(74.195312 298.939388) scale(0.1 -0.1)">
       <use xlink:href="#ArialMT-42"/>
       <use xlink:href="#ArialMT-6c" x="66.699219"/>
       <use xlink:href="#ArialMT-61" x="88.916016"/>
       <use xlink:href="#ArialMT-63" x="144.53125"/>
       <use xlink:href="#ArialMT-6b" x="194.53125"/>
       <use xlink:href="#ArialMT-74" x="244.53125"/>
       <use xlink:href="#ArialMT-6f" x="272.314453"/>
       <use xlink:href="#ArialMT-70" x="327.929688"/>
       <use xlink:href="#ArialMT-20" x="383.544922"/>
       <use xlink:href="#ArialMT-4d" x="411.328125"/>
       <use xlink:href="#ArialMT-6f" x="494.628906"/>
       <use xlink:href="#ArialMT-6a" x="550.244141"/>
       <use xlink:href="#ArialMT-6f" x="572.460938"/>
      </g>
     </g>
    </g>
    <g id="ytick_30">
     <g id="line2d_69">
      <path d="M 144 286.252048 
L 1036.8 286.252048 
" clip-path="url(#p083b20c1bc)" style="fill: none; stroke: #ffffff; stroke-linecap: round"/>
     </g>
     <g id="line2d_70"/>
     <g id="text_35">
      <!-- Royal Blood -->
      <g style="fill: #262626" transform="translate(83.08125 289.830954) scale(0.1 -0.1)">
       <use xlink:href="#ArialMT-52"/>
       <use xlink:href="#ArialMT-6f" x="72.216797"/>
       <use xlink:href="#ArialMT-79" x="127.832031"/>
       <use xlink:href="#ArialMT-61" x="177.832031"/>
       <use xlink:href="#ArialMT-6c" x="233.447266"/>
       <use xlink:href="#ArialMT-20" x="255.664062"/>
       <use xlink:href="#ArialMT-42" x="283.447266"/>
       <use xlink:href="#ArialMT-6c" x="350.146484"/>
       <use xlink:href="#ArialMT-6f" x="372.363281"/>
       <use xlink:href="#ArialMT-6f" x="427.978516"/>
       <use xlink:href="#ArialMT-64" x="483.59375"/>
      </g>
     </g>
    </g>
    <g id="ytick_31">
     <g id="line2d_71">
      <path d="M 144 277.143614 
L 1036.8 277.143614 
" clip-path="url(#p083b20c1bc)" style="fill: none; stroke: #ffffff; stroke-linecap: round"/>
     </g>
     <g id="line2d_72"/>
     <g id="text_36">
      <!-- Childish Gambino -->
      <g style="fill: #262626" transform="translate(58.078125 280.722521) scale(0.1 -0.1)">
       <use xlink:href="#ArialMT-43"/>
       <use xlink:href="#ArialMT-68" x="72.216797"/>
       <use xlink:href="#ArialMT-69" x="127.832031"/>
       <use xlink:href="#ArialMT-6c" x="150.048828"/>
       <use xlink:href="#ArialMT-64" x="172.265625"/>
       <use xlink:href="#ArialMT-69" x="227.880859"/>
       <use xlink:href="#ArialMT-73" x="250.097656"/>
       <use xlink:href="#ArialMT-68" x="300.097656"/>
       <use xlink:href="#ArialMT-20" x="355.712891"/>
       <use xlink:href="#ArialMT-47" x="383.496094"/>
       <use xlink:href="#ArialMT-61" x="461.279297"/>
       <use xlink:href="#ArialMT-6d" x="516.894531"/>
       <use xlink:href="#ArialMT-62" x="600.195312"/>
       <use xlink:href="#ArialMT-69" x="655.810547"/>
       <use xlink:href="#ArialMT-6e" x="678.027344"/>
       <use xlink:href="#ArialMT-6f" x="733.642578"/>
      </g>
     </g>
    </g>
    <g id="ytick_32">
     <g id="line2d_73">
      <path d="M 144 268.035181 
L 1036.8 268.035181 
" clip-path="url(#p083b20c1bc)" style="fill: none; stroke: #ffffff; stroke-linecap: round"/>
     </g>
     <g id="line2d_74"/>
     <g id="text_37">
      <!-- Vicetone -->
      <g style="fill: #262626" transform="translate(98.260937 271.614087) scale(0.1 -0.1)">
       <use xlink:href="#ArialMT-56"/>
       <use xlink:href="#ArialMT-69" x="64.949219"/>
       <use xlink:href="#ArialMT-63" x="87.166016"/>
       <use xlink:href="#ArialMT-65" x="137.166016"/>
       <use xlink:href="#ArialMT-74" x="192.78125"/>
       <use xlink:href="#ArialMT-6f" x="220.564453"/>
       <use xlink:href="#ArialMT-6e" x="276.179688"/>
       <use xlink:href="#ArialMT-65" x="331.794922"/>
      </g>
     </g>
    </g>
    <g id="ytick_33">
     <g id="line2d_75">
      <path d="M 144 258.926747 
L 1036.8 258.926747 
" clip-path="url(#p083b20c1bc)" style="fill: none; stroke: #ffffff; stroke-linecap: round"/>
     </g>
     <g id="line2d_76"/>
     <g id="text_38">
      <!-- A Tribe Called Quest -->
      <g style="fill: #262626" transform="translate(45.2875 262.505653) scale(0.1 -0.1)">
       <defs>
        <path id="ArialMT-51" d="M 3966 491 
Q 4388 200 4744 66 
L 4566 -356 
Q 4072 -178 3581 206 
Q 3072 -78 2456 -78 
Q 1834 -78 1328 222 
Q 822 522 548 1065 
Q 275 1609 275 2291 
Q 275 2969 550 3525 
Q 825 4081 1333 4372 
Q 1841 4663 2469 4663 
Q 3103 4663 3612 4361 
Q 4122 4059 4389 3517 
Q 4656 2975 4656 2294 
Q 4656 1728 4484 1276 
Q 4313 825 3966 491 
z
M 2631 1266 
Q 3156 1119 3497 828 
Q 4031 1316 4031 2294 
Q 4031 2850 3842 3265 
Q 3653 3681 3289 3911 
Q 2925 4141 2472 4141 
Q 1794 4141 1347 3677 
Q 900 3213 900 2291 
Q 900 1397 1342 919 
Q 1784 441 2472 441 
Q 2797 441 3084 563 
Q 2800 747 2484 825 
L 2631 1266 
z
" transform="scale(0.015625)"/>
       </defs>
       <use xlink:href="#ArialMT-41"/>
       <use xlink:href="#ArialMT-20" x="61.199219"/>
       <use xlink:href="#ArialMT-54" x="87.232422"/>
       <use xlink:href="#ArialMT-72" x="144.566406"/>
       <use xlink:href="#ArialMT-69" x="177.867188"/>
       <use xlink:href="#ArialMT-62" x="200.083984"/>
       <use xlink:href="#ArialMT-65" x="255.699219"/>
       <use xlink:href="#ArialMT-20" x="311.314453"/>
       <use xlink:href="#ArialMT-43" x="339.097656"/>
       <use xlink:href="#ArialMT-61" x="411.314453"/>
       <use xlink:href="#ArialMT-6c" x="466.929688"/>
       <use xlink:href="#ArialMT-6c" x="489.146484"/>
       <use xlink:href="#ArialMT-65" x="511.363281"/>
       <use xlink:href="#ArialMT-64" x="566.978516"/>
       <use xlink:href="#ArialMT-20" x="622.59375"/>
       <use xlink:href="#ArialMT-51" x="650.376953"/>
       <use xlink:href="#ArialMT-75" x="728.160156"/>
       <use xlink:href="#ArialMT-65" x="783.775391"/>
       <use xlink:href="#ArialMT-73" x="839.390625"/>
       <use xlink:href="#ArialMT-74" x="889.390625"/>
      </g>
     </g>
    </g>
    <g id="ytick_34">
     <g id="line2d_77">
      <path d="M 144 249.818313 
L 1036.8 249.818313 
" clip-path="url(#p083b20c1bc)" style="fill: none; stroke: #ffffff; stroke-linecap: round"/>
     </g>
     <g id="line2d_78"/>
     <g id="text_39">
      <!-- Logic -->
      <g style="fill: #262626" transform="translate(113.095313 253.39722) scale(0.1 -0.1)">
       <defs>
        <path id="ArialMT-4c" d="M 469 0 
L 469 4581 
L 1075 4581 
L 1075 541 
L 3331 541 
L 3331 0 
L 469 0 
z
" transform="scale(0.015625)"/>
       </defs>
       <use xlink:href="#ArialMT-4c"/>
       <use xlink:href="#ArialMT-6f" x="55.615234"/>
       <use xlink:href="#ArialMT-67" x="111.230469"/>
       <use xlink:href="#ArialMT-69" x="166.845703"/>
       <use xlink:href="#ArialMT-63" x="189.0625"/>
      </g>
     </g>
    </g>
    <g id="ytick_35">
     <g id="line2d_79">
      <path d="M 144 240.70988 
L 1036.8 240.70988 
" clip-path="url(#p083b20c1bc)" style="fill: none; stroke: #ffffff; stroke-linecap: round"/>
     </g>
     <g id="line2d_80"/>
     <g id="text_40">
      <!-- Kanye West -->
      <g style="fill: #262626" transform="translate(83.265625 244.288786) scale(0.1 -0.1)">
       <defs>
        <path id="ArialMT-57" d="M 1294 0 
L 78 4581 
L 700 4581 
L 1397 1578 
Q 1509 1106 1591 641 
Q 1766 1375 1797 1488 
L 2669 4581 
L 3400 4581 
L 4056 2263 
Q 4303 1400 4413 641 
Q 4500 1075 4641 1638 
L 5359 4581 
L 5969 4581 
L 4713 0 
L 4128 0 
L 3163 3491 
Q 3041 3928 3019 4028 
Q 2947 3713 2884 3491 
L 1913 0 
L 1294 0 
z
" transform="scale(0.015625)"/>
       </defs>
       <use xlink:href="#ArialMT-4b"/>
       <use xlink:href="#ArialMT-61" x="66.699219"/>
       <use xlink:href="#ArialMT-6e" x="122.314453"/>
       <use xlink:href="#ArialMT-79" x="177.929688"/>
       <use xlink:href="#ArialMT-65" x="227.929688"/>
       <use xlink:href="#ArialMT-20" x="283.544922"/>
       <use xlink:href="#ArialMT-57" x="311.328125"/>
       <use xlink:href="#ArialMT-65" x="403.962891"/>
       <use xlink:href="#ArialMT-73" x="459.578125"/>
       <use xlink:href="#ArialMT-74" x="509.578125"/>
      </g>
     </g>
    </g>
    <g id="ytick_36">
     <g id="line2d_81">
      <path d="M 144 231.601446 
L 1036.8 231.601446 
" clip-path="url(#p083b20c1bc)" style="fill: none; stroke: #ffffff; stroke-linecap: round"/>
     </g>
     <g id="line2d_82"/>
     <g id="text_41">
      <!-- Ramin Djawadi -->
      <g style="fill: #262626" transform="translate(69.75625 235.180352) scale(0.1 -0.1)">
       <defs>
        <path id="ArialMT-77" d="M 1034 0 
L 19 3319 
L 600 3319 
L 1128 1403 
L 1325 691 
Q 1338 744 1497 1375 
L 2025 3319 
L 2603 3319 
L 3100 1394 
L 3266 759 
L 3456 1400 
L 4025 3319 
L 4572 3319 
L 3534 0 
L 2950 0 
L 2422 1988 
L 2294 2553 
L 1622 0 
L 1034 0 
z
" transform="scale(0.015625)"/>
       </defs>
       <use xlink:href="#ArialMT-52"/>
       <use xlink:href="#ArialMT-61" x="72.216797"/>
       <use xlink:href="#ArialMT-6d" x="127.832031"/>
       <use xlink:href="#ArialMT-69" x="211.132812"/>
       <use xlink:href="#ArialMT-6e" x="233.349609"/>
       <use xlink:href="#ArialMT-20" x="288.964844"/>
       <use xlink:href="#ArialMT-44" x="316.748047"/>
       <use xlink:href="#ArialMT-6a" x="388.964844"/>
       <use xlink:href="#ArialMT-61" x="411.181641"/>
       <use xlink:href="#ArialMT-77" x="466.796875"/>
       <use xlink:href="#ArialMT-61" x="539.013672"/>
       <use xlink:href="#ArialMT-64" x="594.628906"/>
       <use xlink:href="#ArialMT-69" x="650.244141"/>
      </g>
     </g>
    </g>
    <g id="ytick_37">
     <g id="line2d_83">
      <path d="M 144 222.493012 
L 1036.8 222.493012 
" clip-path="url(#p083b20c1bc)" style="fill: none; stroke: #ffffff; stroke-linecap: round"/>
     </g>
     <g id="line2d_84"/>
     <g id="text_42">
      <!-- Disclosure -->
      <g style="fill: #262626" transform="translate(90.321875 226.071918) scale(0.1 -0.1)">
       <use xlink:href="#ArialMT-44"/>
       <use xlink:href="#ArialMT-69" x="72.216797"/>
       <use xlink:href="#ArialMT-73" x="94.433594"/>
       <use xlink:href="#ArialMT-63" x="144.433594"/>
       <use xlink:href="#ArialMT-6c" x="194.433594"/>
       <use xlink:href="#ArialMT-6f" x="216.650391"/>
       <use xlink:href="#ArialMT-73" x="272.265625"/>
       <use xlink:href="#ArialMT-75" x="322.265625"/>
       <use xlink:href="#ArialMT-72" x="377.880859"/>
       <use xlink:href="#ArialMT-65" x="411.181641"/>
      </g>
     </g>
    </g>
    <g id="ytick_38">
     <g id="line2d_85">
      <path d="M 144 213.384578 
L 1036.8 213.384578 
" clip-path="url(#p083b20c1bc)" style="fill: none; stroke: #ffffff; stroke-linecap: round"/>
     </g>
     <g id="line2d_86"/>
     <g id="text_43">
      <!-- Bring Me The Horizon -->
      <g style="fill: #262626" transform="translate(39.920312 216.963485) scale(0.1 -0.1)">
       <use xlink:href="#ArialMT-42"/>
       <use xlink:href="#ArialMT-72" x="66.699219"/>
       <use xlink:href="#ArialMT-69" x="100"/>
       <use xlink:href="#ArialMT-6e" x="122.216797"/>
       <use xlink:href="#ArialMT-67" x="177.832031"/>
       <use xlink:href="#ArialMT-20" x="233.447266"/>
       <use xlink:href="#ArialMT-4d" x="261.230469"/>
       <use xlink:href="#ArialMT-65" x="344.53125"/>
       <use xlink:href="#ArialMT-20" x="400.146484"/>
       <use xlink:href="#ArialMT-54" x="426.179688"/>
       <use xlink:href="#ArialMT-68" x="487.263672"/>
       <use xlink:href="#ArialMT-65" x="542.878906"/>
       <use xlink:href="#ArialMT-20" x="598.494141"/>
       <use xlink:href="#ArialMT-48" x="626.277344"/>
       <use xlink:href="#ArialMT-6f" x="698.494141"/>
       <use xlink:href="#ArialMT-72" x="754.109375"/>
       <use xlink:href="#ArialMT-69" x="787.410156"/>
       <use xlink:href="#ArialMT-7a" x="809.626953"/>
       <use xlink:href="#ArialMT-6f" x="859.626953"/>
       <use xlink:href="#ArialMT-6e" x="915.242188"/>
      </g>
     </g>
    </g>
    <g id="ytick_39">
     <g id="line2d_87">
      <path d="M 144 204.276145 
L 1036.8 204.276145 
" clip-path="url(#p083b20c1bc)" style="fill: none; stroke: #ffffff; stroke-linecap: round"/>
     </g>
     <g id="line2d_88"/>
     <g id="text_44">
      <!-- Audioslave -->
      <g style="fill: #262626" transform="translate(88.08125 207.855051) scale(0.1 -0.1)">
       <use xlink:href="#ArialMT-41"/>
       <use xlink:href="#ArialMT-75" x="66.699219"/>
       <use xlink:href="#ArialMT-64" x="122.314453"/>
       <use xlink:href="#ArialMT-69" x="177.929688"/>
       <use xlink:href="#ArialMT-6f" x="200.146484"/>
       <use xlink:href="#ArialMT-73" x="255.761719"/>
       <use xlink:href="#ArialMT-6c" x="305.761719"/>
       <use xlink:href="#ArialMT-61" x="327.978516"/>
       <use xlink:href="#ArialMT-76" x="383.59375"/>
       <use xlink:href="#ArialMT-65" x="433.59375"/>
      </g>
     </g>
    </g>
    <g id="ytick_40">
     <g id="line2d_89">
      <path d="M 144 195.167711 
L 1036.8 195.167711 
" clip-path="url(#p083b20c1bc)" style="fill: none; stroke: #ffffff; stroke-linecap: round"/>
     </g>
     <g id="line2d_90"/>
     <g id="text_45">
      <!-- Evanescence -->
      <g style="fill: #262626" transform="translate(76.964062 198.746617) scale(0.1 -0.1)">
       <use xlink:href="#ArialMT-45"/>
       <use xlink:href="#ArialMT-76" x="66.699219"/>
       <use xlink:href="#ArialMT-61" x="116.699219"/>
       <use xlink:href="#ArialMT-6e" x="172.314453"/>
       <use xlink:href="#ArialMT-65" x="227.929688"/>
       <use xlink:href="#ArialMT-73" x="283.544922"/>
       <use xlink:href="#ArialMT-63" x="333.544922"/>
       <use xlink:href="#ArialMT-65" x="383.544922"/>
       <use xlink:href="#ArialMT-6e" x="439.160156"/>
       <use xlink:href="#ArialMT-63" x="494.775391"/>
       <use xlink:href="#ArialMT-65" x="544.775391"/>
      </g>
     </g>
    </g>
    <g id="ytick_41">
     <g id="line2d_91">
      <path d="M 144 186.059277 
L 1036.8 186.059277 
" clip-path="url(#p083b20c1bc)" style="fill: none; stroke: #ffffff; stroke-linecap: round"/>
     </g>
     <g id="line2d_92"/>
     <g id="text_46">
      <!-- Martin Garrix -->
      <g style="fill: #262626" transform="translate(79.220313 189.638183) scale(0.1 -0.1)">
       <defs>
        <path id="ArialMT-78" d="M 47 0 
L 1259 1725 
L 138 3319 
L 841 3319 
L 1350 2541 
Q 1494 2319 1581 2169 
Q 1719 2375 1834 2534 
L 2394 3319 
L 3066 3319 
L 1919 1756 
L 3153 0 
L 2463 0 
L 1781 1031 
L 1600 1309 
L 728 0 
L 47 0 
z
" transform="scale(0.015625)"/>
       </defs>
       <use xlink:href="#ArialMT-4d"/>
       <use xlink:href="#ArialMT-61" x="83.300781"/>
       <use xlink:href="#ArialMT-72" x="138.916016"/>
       <use xlink:href="#ArialMT-74" x="172.216797"/>
       <use xlink:href="#ArialMT-69" x="200"/>
       <use xlink:href="#ArialMT-6e" x="222.216797"/>
       <use xlink:href="#ArialMT-20" x="277.832031"/>
       <use xlink:href="#ArialMT-47" x="305.615234"/>
       <use xlink:href="#ArialMT-61" x="383.398438"/>
       <use xlink:href="#ArialMT-72" x="439.013672"/>
       <use xlink:href="#ArialMT-72" x="472.314453"/>
       <use xlink:href="#ArialMT-69" x="505.615234"/>
       <use xlink:href="#ArialMT-78" x="527.832031"/>
      </g>
     </g>
    </g>
    <g id="ytick_42">
     <g id="line2d_93">
      <path d="M 144 176.950843 
L 1036.8 176.950843 
" clip-path="url(#p083b20c1bc)" style="fill: none; stroke: #ffffff; stroke-linecap: round"/>
     </g>
     <g id="line2d_94"/>
     <g id="text_47">
      <!-- Dizzy Mizz Lizzy -->
      <g style="fill: #262626" transform="translate(63.665625 180.52975) scale(0.1 -0.1)">
       <use xlink:href="#ArialMT-44"/>
       <use xlink:href="#ArialMT-69" x="72.216797"/>
       <use xlink:href="#ArialMT-7a" x="94.433594"/>
       <use xlink:href="#ArialMT-7a" x="144.433594"/>
       <use xlink:href="#ArialMT-79" x="194.433594"/>
       <use xlink:href="#ArialMT-20" x="244.433594"/>
       <use xlink:href="#ArialMT-4d" x="272.216797"/>
       <use xlink:href="#ArialMT-69" x="355.517578"/>
       <use xlink:href="#ArialMT-7a" x="377.734375"/>
       <use xlink:href="#ArialMT-7a" x="427.734375"/>
       <use xlink:href="#ArialMT-20" x="477.734375"/>
       <use xlink:href="#ArialMT-4c" x="505.517578"/>
       <use xlink:href="#ArialMT-69" x="561.132812"/>
       <use xlink:href="#ArialMT-7a" x="583.349609"/>
       <use xlink:href="#ArialMT-7a" x="633.349609"/>
       <use xlink:href="#ArialMT-79" x="683.349609"/>
      </g>
     </g>
    </g>
    <g id="ytick_43">
     <g id="line2d_95">
      <path d="M 144 167.84241 
L 1036.8 167.84241 
" clip-path="url(#p083b20c1bc)" style="fill: none; stroke: #ffffff; stroke-linecap: round"/>
     </g>
     <g id="line2d_96"/>
     <g id="text_48">
      <!-- TOOL -->
      <g style="fill: #262626" transform="translate(109.95 171.421316) scale(0.1 -0.1)">
       <use xlink:href="#ArialMT-54"/>
       <use xlink:href="#ArialMT-4f" x="59.333984"/>
       <use xlink:href="#ArialMT-4f" x="137.117188"/>
       <use xlink:href="#ArialMT-4c" x="214.900391"/>
      </g>
     </g>
    </g>
    <g id="ytick_44">
     <g id="line2d_97">
      <path d="M 144 158.733976 
L 1036.8 158.733976 
" clip-path="url(#p083b20c1bc)" style="fill: none; stroke: #ffffff; stroke-linecap: round"/>
     </g>
     <g id="line2d_98"/>
     <g id="text_49">
      <!-- Tremonti -->
      <g style="fill: #262626" transform="translate(97.925 162.312882) scale(0.1 -0.1)">
       <use xlink:href="#ArialMT-54"/>
       <use xlink:href="#ArialMT-72" x="57.333984"/>
       <use xlink:href="#ArialMT-65" x="90.634766"/>
       <use xlink:href="#ArialMT-6d" x="146.25"/>
       <use xlink:href="#ArialMT-6f" x="229.550781"/>
       <use xlink:href="#ArialMT-6e" x="285.166016"/>
       <use xlink:href="#ArialMT-74" x="340.78125"/>
       <use xlink:href="#ArialMT-69" x="368.564453"/>
      </g>
     </g>
    </g>
    <g id="ytick_45">
     <g id="line2d_99">
      <path d="M 144 149.625542 
L 1036.8 149.625542 
" clip-path="url(#p083b20c1bc)" style="fill: none; stroke: #ffffff; stroke-linecap: round"/>
     </g>
     <g id="line2d_100"/>
     <g id="text_50">
      <!-- Rage Against The Machine -->
      <g style="fill: #262626" transform="translate(17.107812 153.204448) scale(0.1 -0.1)">
       <use xlink:href="#ArialMT-52"/>
       <use xlink:href="#ArialMT-61" x="72.216797"/>
       <use xlink:href="#ArialMT-67" x="127.832031"/>
       <use xlink:href="#ArialMT-65" x="183.447266"/>
       <use xlink:href="#ArialMT-20" x="239.0625"/>
       <use xlink:href="#ArialMT-41" x="261.345703"/>
       <use xlink:href="#ArialMT-67" x="328.044922"/>
       <use xlink:href="#ArialMT-61" x="383.660156"/>
       <use xlink:href="#ArialMT-69" x="439.275391"/>
       <use xlink:href="#ArialMT-6e" x="461.492188"/>
       <use xlink:href="#ArialMT-73" x="517.107422"/>
       <use xlink:href="#ArialMT-74" x="567.107422"/>
       <use xlink:href="#ArialMT-20" x="594.890625"/>
       <use xlink:href="#ArialMT-54" x="620.923828"/>
       <use xlink:href="#ArialMT-68" x="682.007812"/>
       <use xlink:href="#ArialMT-65" x="737.623047"/>
       <use xlink:href="#ArialMT-20" x="793.238281"/>
       <use xlink:href="#ArialMT-4d" x="821.021484"/>
       <use xlink:href="#ArialMT-61" x="904.322266"/>
       <use xlink:href="#ArialMT-63" x="959.9375"/>
       <use xlink:href="#ArialMT-68" x="1009.9375"/>
       <use xlink:href="#ArialMT-69" x="1065.552734"/>
       <use xlink:href="#ArialMT-6e" x="1087.769531"/>
       <use xlink:href="#ArialMT-65" x="1143.384766"/>
      </g>
     </g>
    </g>
    <g id="ytick_46">
     <g id="line2d_101">
      <path d="M 144 140.517108 
L 1036.8 140.517108 
" clip-path="url(#p083b20c1bc)" style="fill: none; stroke: #ffffff; stroke-linecap: round"/>
     </g>
     <g id="line2d_102"/>
     <g id="text_51">
      <!-- Nickelback -->
      <g style="fill: #262626" transform="translate(88.651562 144.096015) scale(0.1 -0.1)">
       <use xlink:href="#ArialMT-4e"/>
       <use xlink:href="#ArialMT-69" x="72.216797"/>
       <use xlink:href="#ArialMT-63" x="94.433594"/>
       <use xlink:href="#ArialMT-6b" x="144.433594"/>
       <use xlink:href="#ArialMT-65" x="194.433594"/>
       <use xlink:href="#ArialMT-6c" x="250.048828"/>
       <use xlink:href="#ArialMT-62" x="272.265625"/>
       <use xlink:href="#ArialMT-61" x="327.880859"/>
       <use xlink:href="#ArialMT-63" x="383.496094"/>
       <use xlink:href="#ArialMT-6b" x="433.496094"/>
      </g>
     </g>
    </g>
    <g id="ytick_47">
     <g id="line2d_103">
      <path d="M 144 131.408675 
L 1036.8 131.408675 
" clip-path="url(#p083b20c1bc)" style="fill: none; stroke: #ffffff; stroke-linecap: round"/>
     </g>
     <g id="line2d_104"/>
     <g id="text_52">
      <!-- Fox Stevenson -->
      <g style="fill: #262626" transform="translate(70.3 134.987581) scale(0.1 -0.1)">
       <defs>
        <path id="ArialMT-46" d="M 525 0 
L 525 4581 
L 3616 4581 
L 3616 4041 
L 1131 4041 
L 1131 2622 
L 3281 2622 
L 3281 2081 
L 1131 2081 
L 1131 0 
L 525 0 
z
" transform="scale(0.015625)"/>
       </defs>
       <use xlink:href="#ArialMT-46"/>
       <use xlink:href="#ArialMT-6f" x="61.083984"/>
       <use xlink:href="#ArialMT-78" x="116.699219"/>
       <use xlink:href="#ArialMT-20" x="166.699219"/>
       <use xlink:href="#ArialMT-53" x="194.482422"/>
       <use xlink:href="#ArialMT-74" x="261.181641"/>
       <use xlink:href="#ArialMT-65" x="288.964844"/>
       <use xlink:href="#ArialMT-76" x="344.580078"/>
       <use xlink:href="#ArialMT-65" x="394.580078"/>
       <use xlink:href="#ArialMT-6e" x="450.195312"/>
       <use xlink:href="#ArialMT-73" x="505.810547"/>
       <use xlink:href="#ArialMT-6f" x="555.810547"/>
       <use xlink:href="#ArialMT-6e" x="611.425781"/>
      </g>
     </g>
    </g>
    <g id="ytick_48">
     <g id="line2d_105">
      <path d="M 144 122.300241 
L 1036.8 122.300241 
" clip-path="url(#p083b20c1bc)" style="fill: none; stroke: #ffffff; stroke-linecap: round"/>
     </g>
     <g id="line2d_106"/>
     <g id="text_53">
      <!-- Alter Bridge -->
      <g style="fill: #262626" transform="translate(84.75625 125.879147) scale(0.1 -0.1)">
       <use xlink:href="#ArialMT-41"/>
       <use xlink:href="#ArialMT-6c" x="66.699219"/>
       <use xlink:href="#ArialMT-74" x="88.916016"/>
       <use xlink:href="#ArialMT-65" x="116.699219"/>
       <use xlink:href="#ArialMT-72" x="172.314453"/>
       <use xlink:href="#ArialMT-20" x="205.615234"/>
       <use xlink:href="#ArialMT-42" x="233.398438"/>
       <use xlink:href="#ArialMT-72" x="300.097656"/>
       <use xlink:href="#ArialMT-69" x="333.398438"/>
       <use xlink:href="#ArialMT-64" x="355.615234"/>
       <use xlink:href="#ArialMT-67" x="411.230469"/>
       <use xlink:href="#ArialMT-65" x="466.845703"/>
      </g>
     </g>
    </g>
    <g id="ytick_49">
     <g id="line2d_107">
      <path d="M 144 113.191807 
L 1036.8 113.191807 
" clip-path="url(#p083b20c1bc)" style="fill: none; stroke: #ffffff; stroke-linecap: round"/>
     </g>
     <g id="line2d_108"/>
     <g id="text_54">
      <!-- Linkin Park -->
      <g style="fill: #262626" transform="translate(87.534375 116.770713) scale(0.1 -0.1)">
       <use xlink:href="#ArialMT-4c"/>
       <use xlink:href="#ArialMT-69" x="55.615234"/>
       <use xlink:href="#ArialMT-6e" x="77.832031"/>
       <use xlink:href="#ArialMT-6b" x="133.447266"/>
       <use xlink:href="#ArialMT-69" x="183.447266"/>
       <use xlink:href="#ArialMT-6e" x="205.664062"/>
       <use xlink:href="#ArialMT-20" x="261.279297"/>
       <use xlink:href="#ArialMT-50" x="289.0625"/>
       <use xlink:href="#ArialMT-61" x="355.761719"/>
       <use xlink:href="#ArialMT-72" x="411.376953"/>
       <use xlink:href="#ArialMT-6b" x="444.677734"/>
      </g>
     </g>
    </g>
    <g id="ytick_50">
     <g id="line2d_109">
      <path d="M 144 104.083373 
L 1036.8 104.083373 
" clip-path="url(#p083b20c1bc)" style="fill: none; stroke: #ffffff; stroke-linecap: round"/>
     </g>
     <g id="line2d_110"/>
     <g id="text_55">
      <!-- Suspekt -->
      <g style="fill: #262626" transform="translate(100.86875 107.723217) scale(0.1 -0.1)">
       <use xlink:href="#ArialMT-53"/>
       <use xlink:href="#ArialMT-75" x="66.699219"/>
       <use xlink:href="#ArialMT-73" x="122.314453"/>
       <use xlink:href="#ArialMT-70" x="172.314453"/>
       <use xlink:href="#ArialMT-65" x="227.929688"/>
       <use xlink:href="#ArialMT-6b" x="283.544922"/>
       <use xlink:href="#ArialMT-74" x="333.544922"/>
      </g>
     </g>
    </g>
   </g>
   <g id="patch_3">
    <path d="M 144 554.04 
L 250.285714 554.04 
L 250.285714 546.753253 
L 144 546.753253 
z
" clip-path="url(#p083b20c1bc)" style="fill: #4c72b0"/>
   </g>
   <g id="patch_4">
    <path d="M 144 544.931566 
L 250.285714 544.931566 
L 250.285714 537.644819 
L 144 537.644819 
z
" clip-path="url(#p083b20c1bc)" style="fill: #4c72b0"/>
   </g>
   <g id="patch_5">
    <path d="M 144 535.823133 
L 250.285714 535.823133 
L 250.285714 528.536386 
L 144 528.536386 
z
" clip-path="url(#p083b20c1bc)" style="fill: #4c72b0"/>
   </g>
   <g id="patch_6">
    <path d="M 144 526.714699 
L 250.285714 526.714699 
L 250.285714 519.427952 
L 144 519.427952 
z
" clip-path="url(#p083b20c1bc)" style="fill: #4c72b0"/>
   </g>
   <g id="patch_7">
    <path d="M 144 517.606265 
L 259.948052 517.606265 
L 259.948052 510.319518 
L 144 510.319518 
z
" clip-path="url(#p083b20c1bc)" style="fill: #4c72b0"/>
   </g>
   <g id="patch_8">
    <path d="M 144 508.497831 
L 259.948052 508.497831 
L 259.948052 501.211084 
L 144 501.211084 
z
" clip-path="url(#p083b20c1bc)" style="fill: #4c72b0"/>
   </g>
   <g id="patch_9">
    <path d="M 144 499.389398 
L 259.948052 499.389398 
L 259.948052 492.102651 
L 144 492.102651 
z
" clip-path="url(#p083b20c1bc)" style="fill: #4c72b0"/>
   </g>
   <g id="patch_10">
    <path d="M 144 490.280964 
L 259.948052 490.280964 
L 259.948052 482.994217 
L 144 482.994217 
z
" clip-path="url(#p083b20c1bc)" style="fill: #4c72b0"/>
   </g>
   <g id="patch_11">
    <path d="M 144 481.17253 
L 259.948052 481.17253 
L 259.948052 473.885783 
L 144 473.885783 
z
" clip-path="url(#p083b20c1bc)" style="fill: #4c72b0"/>
   </g>
   <g id="patch_12">
    <path d="M 144 472.064096 
L 259.948052 472.064096 
L 259.948052 464.777349 
L 144 464.777349 
z
" clip-path="url(#p083b20c1bc)" style="fill: #4c72b0"/>
   </g>
   <g id="patch_13">
    <path d="M 144 462.955663 
L 259.948052 462.955663 
L 259.948052 455.668916 
L 144 455.668916 
z
" clip-path="url(#p083b20c1bc)" style="fill: #4c72b0"/>
   </g>
   <g id="patch_14">
    <path d="M 144 453.847229 
L 259.948052 453.847229 
L 259.948052 446.560482 
L 144 446.560482 
z
" clip-path="url(#p083b20c1bc)" style="fill: #4c72b0"/>
   </g>
   <g id="patch_15">
    <path d="M 144 444.738795 
L 269.61039 444.738795 
L 269.61039 437.452048 
L 144 437.452048 
z
" clip-path="url(#p083b20c1bc)" style="fill: #4c72b0"/>
   </g>
   <g id="patch_16">
    <path d="M 144 435.630361 
L 269.61039 435.630361 
L 269.61039 428.343614 
L 144 428.343614 
z
" clip-path="url(#p083b20c1bc)" style="fill: #4c72b0"/>
   </g>
   <g id="patch_17">
    <path d="M 144 426.521928 
L 279.272727 426.521928 
L 279.272727 419.235181 
L 144 419.235181 
z
" clip-path="url(#p083b20c1bc)" style="fill: #4c72b0"/>
   </g>
   <g id="patch_18">
    <path d="M 144 417.413494 
L 279.272727 417.413494 
L 279.272727 410.126747 
L 144 410.126747 
z
" clip-path="url(#p083b20c1bc)" style="fill: #4c72b0"/>
   </g>
   <g id="patch_19">
    <path d="M 144 408.30506 
L 279.272727 408.30506 
L 279.272727 401.018313 
L 144 401.018313 
z
" clip-path="url(#p083b20c1bc)" style="fill: #4c72b0"/>
   </g>
   <g id="patch_20">
    <path d="M 144 399.196627 
L 279.272727 399.196627 
L 279.272727 391.90988 
L 144 391.90988 
z
" clip-path="url(#p083b20c1bc)" style="fill: #4c72b0"/>
   </g>
   <g id="patch_21">
    <path d="M 144 390.088193 
L 279.272727 390.088193 
L 279.272727 382.801446 
L 144 382.801446 
z
" clip-path="url(#p083b20c1bc)" style="fill: #4c72b0"/>
   </g>
   <g id="patch_22">
    <path d="M 144 380.979759 
L 288.935065 380.979759 
L 288.935065 373.693012 
L 144 373.693012 
z
" clip-path="url(#p083b20c1bc)" style="fill: #4c72b0"/>
   </g>
   <g id="patch_23">
    <path d="M 144 371.871325 
L 288.935065 371.871325 
L 288.935065 364.584578 
L 144 364.584578 
z
" clip-path="url(#p083b20c1bc)" style="fill: #4c72b0"/>
   </g>
   <g id="patch_24">
    <path d="M 144 362.762892 
L 288.935065 362.762892 
L 288.935065 355.476145 
L 144 355.476145 
z
" clip-path="url(#p083b20c1bc)" style="fill: #4c72b0"/>
   </g>
   <g id="patch_25">
    <path d="M 144 353.654458 
L 298.597403 353.654458 
L 298.597403 346.367711 
L 144 346.367711 
z
" clip-path="url(#p083b20c1bc)" style="fill: #4c72b0"/>
   </g>
   <g id="patch_26">
    <path d="M 144 344.546024 
L 298.597403 344.546024 
L 298.597403 337.259277 
L 144 337.259277 
z
" clip-path="url(#p083b20c1bc)" style="fill: #4c72b0"/>
   </g>
   <g id="patch_27">
    <path d="M 144 335.43759 
L 298.597403 335.43759 
L 298.597403 328.150843 
L 144 328.150843 
z
" clip-path="url(#p083b20c1bc)" style="fill: #4c72b0"/>
   </g>
   <g id="patch_28">
    <path d="M 144 326.329157 
L 308.25974 326.329157 
L 308.25974 319.04241 
L 144 319.04241 
z
" clip-path="url(#p083b20c1bc)" style="fill: #4c72b0"/>
   </g>
   <g id="patch_29">
    <path d="M 144 317.220723 
L 317.922078 317.220723 
L 317.922078 309.933976 
L 144 309.933976 
z
" clip-path="url(#p083b20c1bc)" style="fill: #4c72b0"/>
   </g>
   <g id="patch_30">
    <path d="M 144 308.112289 
L 366.233766 308.112289 
L 366.233766 300.825542 
L 144 300.825542 
z
" clip-path="url(#p083b20c1bc)" style="fill: #4c72b0"/>
   </g>
   <g id="patch_31">
    <path d="M 144 299.003855 
L 375.896104 299.003855 
L 375.896104 291.717108 
L 144 291.717108 
z
" clip-path="url(#p083b20c1bc)" style="fill: #4c72b0"/>
   </g>
   <g id="patch_32">
    <path d="M 144 289.895422 
L 385.558442 289.895422 
L 385.558442 282.608675 
L 144 282.608675 
z
" clip-path="url(#p083b20c1bc)" style="fill: #4c72b0"/>
   </g>
   <g id="patch_33">
    <path d="M 144 280.786988 
L 395.220779 280.786988 
L 395.220779 273.500241 
L 144 273.500241 
z
" clip-path="url(#p083b20c1bc)" style="fill: #4c72b0"/>
   </g>
   <g id="patch_34">
    <path d="M 144 271.678554 
L 395.220779 271.678554 
L 395.220779 264.391807 
L 144 264.391807 
z
" clip-path="url(#p083b20c1bc)" style="fill: #4c72b0"/>
   </g>
   <g id="patch_35">
    <path d="M 144 262.57012 
L 414.545455 262.57012 
L 414.545455 255.283373 
L 144 255.283373 
z
" clip-path="url(#p083b20c1bc)" style="fill: #4c72b0"/>
   </g>
   <g id="patch_36">
    <path d="M 144 253.461687 
L 424.207792 253.461687 
L 424.207792 246.17494 
L 144 246.17494 
z
" clip-path="url(#p083b20c1bc)" style="fill: #4c72b0"/>
   </g>
   <g id="patch_37">
    <path d="M 144 244.353253 
L 443.532468 244.353253 
L 443.532468 237.066506 
L 144 237.066506 
z
" clip-path="url(#p083b20c1bc)" style="fill: #4c72b0"/>
   </g>
   <g id="patch_38">
    <path d="M 144 235.244819 
L 472.519481 235.244819 
L 472.519481 227.958072 
L 144 227.958072 
z
" clip-path="url(#p083b20c1bc)" style="fill: #4c72b0"/>
   </g>
   <g id="patch_39">
    <path d="M 144 226.136386 
L 482.181818 226.136386 
L 482.181818 218.849639 
L 144 218.849639 
z
" clip-path="url(#p083b20c1bc)" style="fill: #4c72b0"/>
   </g>
   <g id="patch_40">
    <path d="M 144 217.027952 
L 511.168831 217.027952 
L 511.168831 209.741205 
L 144 209.741205 
z
" clip-path="url(#p083b20c1bc)" style="fill: #4c72b0"/>
   </g>
   <g id="patch_41">
    <path d="M 144 207.919518 
L 520.831169 207.919518 
L 520.831169 200.632771 
L 144 200.632771 
z
" clip-path="url(#p083b20c1bc)" style="fill: #4c72b0"/>
   </g>
   <g id="patch_42">
    <path d="M 144 198.811084 
L 540.155844 198.811084 
L 540.155844 191.524337 
L 144 191.524337 
z
" clip-path="url(#p083b20c1bc)" style="fill: #4c72b0"/>
   </g>
   <g id="patch_43">
    <path d="M 144 189.702651 
L 540.155844 189.702651 
L 540.155844 182.415904 
L 144 182.415904 
z
" clip-path="url(#p083b20c1bc)" style="fill: #4c72b0"/>
   </g>
   <g id="patch_44">
    <path d="M 144 180.594217 
L 569.142857 180.594217 
L 569.142857 173.30747 
L 144 173.30747 
z
" clip-path="url(#p083b20c1bc)" style="fill: #4c72b0"/>
   </g>
   <g id="patch_45">
    <path d="M 144 171.485783 
L 578.805195 171.485783 
L 578.805195 164.199036 
L 144 164.199036 
z
" clip-path="url(#p083b20c1bc)" style="fill: #4c72b0"/>
   </g>
   <g id="patch_46">
    <path d="M 144 162.377349 
L 617.454545 162.377349 
L 617.454545 155.090602 
L 144 155.090602 
z
" clip-path="url(#p083b20c1bc)" style="fill: #4c72b0"/>
   </g>
   <g id="patch_47">
    <path d="M 144 153.268916 
L 617.454545 153.268916 
L 617.454545 145.982169 
L 144 145.982169 
z
" clip-path="url(#p083b20c1bc)" style="fill: #4c72b0"/>
   </g>
   <g id="patch_48">
    <path d="M 144 144.160482 
L 646.441558 144.160482 
L 646.441558 136.873735 
L 144 136.873735 
z
" clip-path="url(#p083b20c1bc)" style="fill: #4c72b0"/>
   </g>
   <g id="patch_49">
    <path d="M 144 135.052048 
L 714.077922 135.052048 
L 714.077922 127.765301 
L 144 127.765301 
z
" clip-path="url(#p083b20c1bc)" style="fill: #4c72b0"/>
   </g>
   <g id="patch_50">
    <path d="M 144 125.943614 
L 801.038961 125.943614 
L 801.038961 118.656867 
L 144 118.656867 
z
" clip-path="url(#p083b20c1bc)" style="fill: #4c72b0"/>
   </g>
   <g id="patch_51">
    <path d="M 144 116.835181 
L 965.298701 116.835181 
L 965.298701 109.548434 
L 144 109.548434 
z
" clip-path="url(#p083b20c1bc)" style="fill: #4c72b0"/>
   </g>
   <g id="patch_52">
    <path d="M 144 107.726747 
L 994.285714 107.726747 
L 994.285714 100.44 
L 144 100.44 
z
" clip-path="url(#p083b20c1bc)" style="fill: #4c72b0"/>
   </g>
   <g id="patch_53">
    <path d="M 144 576.72 
L 144 77.76 
" style="fill: none"/>
   </g>
   <g id="patch_54">
    <path d="M 1036.8 576.72 
L 1036.8 77.76 
" style="fill: none"/>
   </g>
   <g id="patch_55">
    <path d="M 144 576.72 
L 1036.8 576.72 
" style="fill: none"/>
   </g>
   <g id="patch_56">
    <path d="M 144 77.76 
L 1036.8 77.76 
" style="fill: none"/>
   </g>
   <g id="text_56">
    <!-- Most common artists -->
    <g style="fill: #262626" transform="translate(535.058437 71.76) scale(0.12 -0.12)">
     <use xlink:href="#ArialMT-4d"/>
     <use xlink:href="#ArialMT-6f" x="83.300781"/>
     <use xlink:href="#ArialMT-73" x="138.916016"/>
     <use xlink:href="#ArialMT-74" x="188.916016"/>
     <use xlink:href="#ArialMT-20" x="216.699219"/>
     <use xlink:href="#ArialMT-63" x="244.482422"/>
     <use xlink:href="#ArialMT-6f" x="294.482422"/>
     <use xlink:href="#ArialMT-6d" x="350.097656"/>
     <use xlink:href="#ArialMT-6d" x="433.398438"/>
     <use xlink:href="#ArialMT-6f" x="516.699219"/>
     <use xlink:href="#ArialMT-6e" x="572.314453"/>
     <use xlink:href="#ArialMT-20" x="627.929688"/>
     <use xlink:href="#ArialMT-61" x="655.712891"/>
     <use xlink:href="#ArialMT-72" x="711.328125"/>
     <use xlink:href="#ArialMT-74" x="744.628906"/>
     <use xlink:href="#ArialMT-69" x="772.412109"/>
     <use xlink:href="#ArialMT-73" x="794.628906"/>
     <use xlink:href="#ArialMT-74" x="844.628906"/>
     <use xlink:href="#ArialMT-73" x="872.412109"/>
    </g>
   </g>
  </g>
 </g>
 <defs>
  <clipPath id="p083b20c1bc">
   <rect x="144" y="77.76" width="892.8" height="498.96"/>
  </clipPath>
 </defs>
</svg>
